<svg xmlns="http://www.w3.org/2000/svg" xmlns:xlink="http://www.w3.org/1999/xlink" contentStyleType="text/css" height="1507px" preserveAspectRatio="none" style="width:1884px;height:1507px;background:#FFFFFF;" version="1.1" viewBox="0 0 1884 1507" width="1884px" zoomAndPan="magnify"><defs/><g><!--cluster Binance Data Source--><g id="cluster_Binance Data Source"><path d="M8.5,6 L150.043,6 A3.75,3.75 0 0 1 152.543,8.5 L159.543,25.9688 L1874.5,25.9688 A2.5,2.5 0 0 1 1877,28.4688 L1877,187.5 A2.5,2.5 0 0 1 1874.5,190 L8.5,190 A2.5,2.5 0 0 1 6,187.5 L6,8.5 A2.5,2.5 0 0 1 8.5,6 " fill="#FFFBE6" style="stroke:#1565C0;stroke-width:1.5;"/><line style="stroke:#1565C0;stroke-width:1.5;" x1="6" x2="159.543" y1="25.9688" y2="25.9688"/><text fill="#000000" font-family="Arial" font-size="12" font-weight="bold" lengthAdjust="spacing" textLength="140.543" x="10" y="19.1387">Binance Data Source</text></g><!--cluster Raw Market Data--><g id="cluster_Raw Market Data"><path d="M1135.5,46 L1252.9844,46 A3.75,3.75 0 0 1 1255.4844,48.5 L1262.4844,65.9688 L1850.5,65.9688 A2.5,2.5 0 0 1 1853,68.4688 L1853,163.5 A2.5,2.5 0 0 1 1850.5,166 L1135.5,166 A2.5,2.5 0 0 1 1133,163.5 L1133,48.5 A2.5,2.5 0 0 1 1135.5,46 " fill="#FFFBE6" style="stroke:#1565C0;stroke-width:1.5;"/><line style="stroke:#1565C0;stroke-width:1.5;" x1="1133" x2="1262.4844" y1="65.9688" y2="65.9688"/><text fill="#000000" font-family="Arial" font-size="12" font-weight="bold" lengthAdjust="spacing" textLength="116.4844" x="1137" y="59.1387">Raw Market Data</text></g><!--cluster Price & Kline Data--><g id="cluster_Price &amp; Kline Data"><path d="M422.5,53 L546.6758,53 A3.75,3.75 0 0 1 549.1758,55.5 L556.1758,72.9688 L1106.5,72.9688 A2.5,2.5 0 0 1 1109,75.4688 L1109,156.5 A2.5,2.5 0 0 1 1106.5,159 L422.5,159 A2.5,2.5 0 0 1 420,156.5 L420,55.5 A2.5,2.5 0 0 1 422.5,53 " fill="#FFFBE6" style="stroke:#1565C0;stroke-width:1.5;"/><line style="stroke:#1565C0;stroke-width:1.5;" x1="420" x2="556.1758" y1="72.9688" y2="72.9688"/><text fill="#000000" font-family="Arial" font-size="12" font-weight="bold" lengthAdjust="spacing" textLength="123.1758" x="424" y="66.1387">Price &amp; Kline Data</text></g><!--cluster Market Metrics--><g id="cluster_Market Metrics"><path d="M32.5,53 L135.5938,53 A3.75,3.75 0 0 1 138.0938,55.5 L145.0938,72.9688 L393.5,72.9688 A2.5,2.5 0 0 1 396,75.4688 L396,156.5 A2.5,2.5 0 0 1 393.5,159 L32.5,159 A2.5,2.5 0 0 1 30,156.5 L30,55.5 A2.5,2.5 0 0 1 32.5,53 " fill="#FFFBE6" style="stroke:#1565C0;stroke-width:1.5;"/><line style="stroke:#1565C0;stroke-width:1.5;" x1="30" x2="145.0938" y1="72.9688" y2="72.9688"/><text fill="#000000" font-family="Arial" font-size="12" font-weight="bold" lengthAdjust="spacing" textLength="102.0938" x="34" y="66.1387">Market Metrics</text></g><!--cluster Backtest Framework--><g id="cluster_Backtest Framework"><path d="M451.5,214 L591.8535,214 A3.75,3.75 0 0 1 594.3535,216.5 L601.3535,233.9688 L1276.5,233.9688 A2.5,2.5 0 0 1 1279,236.4688 L1279,1497.5 A2.5,2.5 0 0 1 1276.5,1500 L451.5,1500 A2.5,2.5 0 0 1 449,1497.5 L449,216.5 A2.5,2.5 0 0 1 451.5,214 " fill="#E6F3FF" style="stroke:#1565C0;stroke-width:1.5;"/><line style="stroke:#1565C0;stroke-width:1.5;" x1="449" x2="601.3535" y1="233.9688" y2="233.9688"/><text fill="#000000" font-family="Arial" font-size="12" font-weight="bold" lengthAdjust="spacing" textLength="139.3535" x="453" y="227.1387">Backtest Framework</text></g><!--cluster Data Processing Layer--><g id="cluster_Data Processing Layer"><path d="M683.5,254 L836.1113,254 A3.75,3.75 0 0 1 838.6113,256.5 L845.6113,273.9688 L1252.5,273.9688 A2.5,2.5 0 0 1 1255,276.4688 L1255,659.5 A2.5,2.5 0 0 1 1252.5,662 L683.5,662 A2.5,2.5 0 0 1 681,659.5 L681,256.5 A2.5,2.5 0 0 1 683.5,254 " fill="#F0F8FF" style="stroke:#1565C0;stroke-width:1.5;"/><line style="stroke:#1565C0;stroke-width:1.5;" x1="681" x2="845.6113" y1="273.9688" y2="273.9688"/><text fill="#000000" font-family="Arial" font-size="12" font-weight="bold" lengthAdjust="spacing" textLength="151.6113" x="685" y="267.1387">Data Processing Layer</text></g><!--cluster Data Cache--><g id="cluster_Data Cache"><path d="M707.5,518 L785.2695,518 A3.75,3.75 0 0 1 787.7695,520.5 L794.7695,537.9688 L1228.5,537.9688 A2.5,2.5 0 0 1 1231,540.4688 L1231,635.5 A2.5,2.5 0 0 1 1228.5,638 L707.5,638 A2.5,2.5 0 0 1 705,635.5 L705,520.5 A2.5,2.5 0 0 1 707.5,518 " fill="#F0F8FF" style="stroke:#1565C0;stroke-width:1.5;"/><line style="stroke:#1565C0;stroke-width:1.5;" x1="705" x2="794.7695" y1="537.9688" y2="537.9688"/><text fill="#000000" font-family="Arial" font-size="12" font-weight="bold" lengthAdjust="spacing" textLength="76.7695" x="709" y="531.1387">Data Cache</text></g><!--cluster Market Reconstruction--><g id="cluster_Market Reconstruction"><path d="M698.5,686 L853.8594,686 A3.75,3.75 0 0 1 856.3594,688.5 L863.3594,705.9688 L1227.5,705.9688 A2.5,2.5 0 0 1 1230,708.4688 L1230,803.5 A2.5,2.5 0 0 1 1227.5,806 L698.5,806 A2.5,2.5 0 0 1 696,803.5 L696,688.5 A2.5,2.5 0 0 1 698.5,686 " fill="#F0F8FF" style="stroke:#1565C0;stroke-width:1.5;"/><line style="stroke:#1565C0;stroke-width:1.5;" x1="696" x2="863.3594" y1="705.9688" y2="705.9688"/><text fill="#000000" font-family="Arial" font-size="12" font-weight="bold" lengthAdjust="spacing" textLength="154.3594" x="700" y="699.1387">Market Reconstruction</text></g><!--cluster Strategy Engine--><g id="cluster_Strategy Engine"><path d="M904.5,830 L1014.4844,830 A3.75,3.75 0 0 1 1016.9844,832.5 L1023.9844,849.9688 L1252.5,849.9688 A2.5,2.5 0 0 1 1255,852.4688 L1255,1065.5 A2.5,2.5 0 0 1 1252.5,1068 L904.5,1068 A2.5,2.5 0 0 1 902,1065.5 L902,832.5 A2.5,2.5 0 0 1 904.5,830 " fill="#E6F3FF" style="stroke:#1565C0;stroke-width:1.5;"/><line style="stroke:#1565C0;stroke-width:1.5;" x1="902" x2="1023.9844" y1="849.9688" y2="849.9688"/><text fill="#000000" font-family="Arial" font-size="12" font-weight="bold" lengthAdjust="spacing" textLength="108.9844" x="906" y="843.1387">Strategy Engine</text></g><!--cluster Order Management--><g id="cluster_Order Management"><path d="M1056.5,1092 L1188.7734,1092 A3.75,3.75 0 0 1 1191.2734,1094.5 L1198.2734,1111.9688 L1239.5,1111.9688 A2.5,2.5 0 0 1 1242,1114.4688 L1242,1473.5 A2.5,2.5 0 0 1 1239.5,1476 L1056.5,1476 A2.5,2.5 0 0 1 1054,1473.5 L1054,1094.5 A2.5,2.5 0 0 1 1056.5,1092 " fill="#E6F3FF" style="stroke:#1565C0;stroke-width:1.5;"/><line style="stroke:#1565C0;stroke-width:1.5;" x1="1054" x2="1198.2734" y1="1111.9688" y2="1111.9688"/><text fill="#000000" font-family="Arial" font-size="12" font-weight="bold" lengthAdjust="spacing" textLength="131.2734" x="1058" y="1105.1387">Order Management</text></g><!--cluster Simulation Engine--><g id="cluster_Simulation Engine"><path d="M475.5,1224 L599.4531,1224 A3.75,3.75 0 0 1 601.9531,1226.5 L608.9531,1243.9688 L1027.5,1243.9688 A2.5,2.5 0 0 1 1030,1246.4688 L1030,1341.5 A2.5,2.5 0 0 1 1027.5,1344 L475.5,1344 A2.5,2.5 0 0 1 473,1341.5 L473,1226.5 A2.5,2.5 0 0 1 475.5,1224 " fill="#F0F8FF" style="stroke:#1565C0;stroke-width:1.5;"/><line style="stroke:#1565C0;stroke-width:1.5;" x1="473" x2="608.9531" y1="1243.9688" y2="1243.9688"/><text fill="#000000" font-family="Arial" font-size="12" font-weight="bold" lengthAdjust="spacing" textLength="122.9531" x="477" y="1237.1387">Simulation Engine</text></g><!--cluster Analysis & Reporting--><g id="cluster_Analysis &amp; Reporting"><path d="M1305.5,962 L1448.6953,962 A3.75,3.75 0 0 1 1451.1953,964.5 L1458.1953,981.9688 L1494.5,981.9688 A2.5,2.5 0 0 1 1497,984.4688 L1497,1334.5 A2.5,2.5 0 0 1 1494.5,1337 L1305.5,1337 A2.5,2.5 0 0 1 1303,1334.5 L1303,964.5 A2.5,2.5 0 0 1 1305.5,962 " fill="#E6FFE6" style="stroke:#1565C0;stroke-width:1.5;"/><line style="stroke:#1565C0;stroke-width:1.5;" x1="1303" x2="1458.1953" y1="981.9688" y2="981.9688"/><text fill="#000000" font-family="Arial" font-size="12" font-weight="bold" lengthAdjust="spacing" textLength="142.1953" x="1307" y="975.1387">Analysis &amp; Reporting</text></g><!--entity AT--><g id="elem_AT"><rect fill="#FFFFFF" height="71.9063" rx="2.5" ry="2.5" style="stroke:#666666;stroke-width:0.5;" width="155.1191" x="1681.5" y="78"/><rect fill="#FFFFFF" height="10" style="stroke:#666666;stroke-width:0.5;" width="15" x="1816.6191" y="83"/><rect fill="#FFFFFF" height="2" style="stroke:#666666;stroke-width:0.5;" width="4" x="1814.6191" y="85"/><rect fill="#FFFFFF" height="2" style="stroke:#666666;stroke-width:0.5;" width="4" x="1814.6191" y="89"/><text fill="#000000" font-family="Arial" font-size="12" lengthAdjust="spacing" textLength="63.457" x="1696.5" y="109.1387">aggTrades</text><text fill="#000000" font-family="Arial" font-size="12" lengthAdjust="spacing" textLength="115.1191" x="1696.5" y="123.1074">Aggregated Trades</text><text fill="#000000" font-family="Arial" font-size="12" lengthAdjust="spacing" textLength="110.9297" x="1696.5" y="137.0762">Price/Vol/Direction</text></g><!--entity BD--><g id="elem_BD"><rect fill="#FFFFFF" height="71.9063" rx="2.5" ry="2.5" style="stroke:#666666;stroke-width:0.5;" width="136.2402" x="1510" y="78"/><rect fill="#FFFFFF" height="10" style="stroke:#666666;stroke-width:0.5;" width="15" x="1626.2402" y="83"/><rect fill="#FFFFFF" height="2" style="stroke:#666666;stroke-width:0.5;" width="4" x="1624.2402" y="85"/><rect fill="#FFFFFF" height="2" style="stroke:#666666;stroke-width:0.5;" width="4" x="1624.2402" y="89"/><text fill="#000000" font-family="Arial" font-size="12" lengthAdjust="spacing" textLength="65.8008" x="1525" y="109.1387">bookDepth</text><text fill="#000000" font-family="Arial" font-size="12" lengthAdjust="spacing" textLength="96.2402" x="1525" y="123.1074">L1-L1000 Depth</text><text fill="#000000" font-family="Arial" font-size="12" lengthAdjust="spacing" textLength="96.0293" x="1525" y="137.0762">Orderbook Data</text></g><!--entity BT--><g id="elem_BT"><rect fill="#FFFFFF" height="71.9063" rx="2.5" ry="2.5" style="stroke:#666666;stroke-width:0.5;" width="151.375" x="1323.5" y="78"/><rect fill="#FFFFFF" height="10" style="stroke:#666666;stroke-width:0.5;" width="15" x="1454.875" y="83"/><rect fill="#FFFFFF" height="2" style="stroke:#666666;stroke-width:0.5;" width="4" x="1452.875" y="85"/><rect fill="#FFFFFF" height="2" style="stroke:#666666;stroke-width:0.5;" width="4" x="1452.875" y="89"/><text fill="#000000" font-family="Arial" font-size="12" lengthAdjust="spacing" textLength="65.7773" x="1338.5" y="109.1387">bookTicker</text><text fill="#000000" font-family="Arial" font-size="12" lengthAdjust="spacing" textLength="75.0234" x="1338.5" y="123.1074">Best Bid/Ask</text><text fill="#000000" font-family="Arial" font-size="12" lengthAdjust="spacing" textLength="111.375" x="1338.5" y="137.0762">Real-time Updates</text></g><!--entity TR--><g id="elem_TR"><rect fill="#FFFFFF" height="71.9063" rx="2.5" ry="2.5" style="stroke:#666666;stroke-width:0.5;" width="139.2344" x="1149.5" y="78"/><rect fill="#FFFFFF" height="10" style="stroke:#666666;stroke-width:0.5;" width="15" x="1268.7344" y="83"/><rect fill="#FFFFFF" height="2" style="stroke:#666666;stroke-width:0.5;" width="4" x="1266.7344" y="85"/><rect fill="#FFFFFF" height="2" style="stroke:#666666;stroke-width:0.5;" width="4" x="1266.7344" y="89"/><text fill="#000000" font-family="Arial" font-size="12" lengthAdjust="spacing" textLength="38.2441" x="1164.5" y="109.1387">trades</text><text fill="#000000" font-family="Arial" font-size="12" lengthAdjust="spacing" textLength="70.1895" x="1164.5" y="123.1074">Raw Trades</text><text fill="#000000" font-family="Arial" font-size="12" lengthAdjust="spacing" textLength="99.2344" x="1164.5" y="137.0762">Original Records</text></g><!--entity KL--><g id="elem_KL"><rect fill="#FFFFFF" height="57.9375" rx="2.5" ry="2.5" style="stroke:#666666;stroke-width:0.5;" width="114.209" x="979" y="85"/><rect fill="#FFFFFF" height="10" style="stroke:#666666;stroke-width:0.5;" width="15" x="1073.209" y="90"/><rect fill="#FFFFFF" height="2" style="stroke:#666666;stroke-width:0.5;" width="4" x="1071.209" y="92"/><rect fill="#FFFFFF" height="2" style="stroke:#666666;stroke-width:0.5;" width="4" x="1071.209" y="96"/><text fill="#000000" font-family="Arial" font-size="12" lengthAdjust="spacing" textLength="34.8574" x="994" y="116.1387">klines</text><text fill="#000000" font-family="Arial" font-size="12" lengthAdjust="spacing" textLength="74.209" x="994" y="130.1074">OHLCV Data</text></g><!--entity IPK--><g id="elem_IPK"><rect fill="#FFFFFF" height="57.9375" rx="2.5" ry="2.5" style="stroke:#666666;stroke-width:0.5;" width="138.3027" x="806" y="85"/><rect fill="#FFFFFF" height="10" style="stroke:#666666;stroke-width:0.5;" width="15" x="924.3027" y="90"/><rect fill="#FFFFFF" height="2" style="stroke:#666666;stroke-width:0.5;" width="4" x="922.3027" y="92"/><rect fill="#FFFFFF" height="2" style="stroke:#666666;stroke-width:0.5;" width="4" x="922.3027" y="96"/><text fill="#000000" font-family="Arial" font-size="12" lengthAdjust="spacing" textLength="98.3027" x="821" y="116.1387">indexPriceKlines</text><text fill="#000000" font-family="Arial" font-size="12" lengthAdjust="spacing" textLength="66.5449" x="821" y="130.1074">Index Price</text></g><!--entity MPK--><g id="elem_MPK"><rect fill="#FFFFFF" height="57.9375" rx="2.5" ry="2.5" style="stroke:#666666;stroke-width:0.5;" width="136.1875" x="635" y="85"/><rect fill="#FFFFFF" height="10" style="stroke:#666666;stroke-width:0.5;" width="15" x="751.1875" y="90"/><rect fill="#FFFFFF" height="2" style="stroke:#666666;stroke-width:0.5;" width="4" x="749.1875" y="92"/><rect fill="#FFFFFF" height="2" style="stroke:#666666;stroke-width:0.5;" width="4" x="749.1875" y="96"/><text fill="#000000" font-family="Arial" font-size="12" lengthAdjust="spacing" textLength="96.1875" x="650" y="116.1387">markPriceKlines</text><text fill="#000000" font-family="Arial" font-size="12" lengthAdjust="spacing" textLength="62.8887" x="650" y="130.1074">Mark Price</text></g><!--entity PIK--><g id="elem_PIK"><rect fill="#FFFFFF" height="57.9375" rx="2.5" ry="2.5" style="stroke:#666666;stroke-width:0.5;" width="163.2754" x="436.5" y="85"/><rect fill="#FFFFFF" height="10" style="stroke:#666666;stroke-width:0.5;" width="15" x="579.7754" y="90"/><rect fill="#FFFFFF" height="2" style="stroke:#666666;stroke-width:0.5;" width="4" x="577.7754" y="92"/><rect fill="#FFFFFF" height="2" style="stroke:#666666;stroke-width:0.5;" width="4" x="577.7754" y="96"/><text fill="#000000" font-family="Arial" font-size="12" lengthAdjust="spacing" textLength="123.2754" x="451.5" y="116.1387">premiumIndexKlines</text><text fill="#000000" font-family="Arial" font-size="12" lengthAdjust="spacing" textLength="90.9316" x="451.5" y="130.1074">Premium Index</text></g><!--entity MT--><g id="elem_MT"><rect fill="#FFFFFF" height="57.9375" rx="2.5" ry="2.5" style="stroke:#666666;stroke-width:0.5;" width="140.3477" x="240" y="85"/><rect fill="#FFFFFF" height="10" style="stroke:#666666;stroke-width:0.5;" width="15" x="360.3477" y="90"/><rect fill="#FFFFFF" height="2" style="stroke:#666666;stroke-width:0.5;" width="4" x="358.3477" y="92"/><rect fill="#FFFFFF" height="2" style="stroke:#666666;stroke-width:0.5;" width="4" x="358.3477" y="96"/><text fill="#000000" font-family="Arial" font-size="12" lengthAdjust="spacing" textLength="44.8945" x="255" y="116.1387">metrics</text><text fill="#000000" font-family="Arial" font-size="12" lengthAdjust="spacing" textLength="100.3477" x="255" y="130.1074">Market Statistics</text></g><!--entity LS--><g id="elem_LS"><rect fill="#FFFFFF" height="57.9375" rx="2.5" ry="2.5" style="stroke:#666666;stroke-width:0.5;" width="159.2793" x="45.5" y="85"/><rect fill="#FFFFFF" height="10" style="stroke:#666666;stroke-width:0.5;" width="15" x="184.7793" y="90"/><rect fill="#FFFFFF" height="2" style="stroke:#666666;stroke-width:0.5;" width="4" x="182.7793" y="92"/><rect fill="#FFFFFF" height="2" style="stroke:#666666;stroke-width:0.5;" width="4" x="182.7793" y="96"/><text fill="#000000" font-family="Arial" font-size="12" lengthAdjust="spacing" textLength="119.2793" x="60.5" y="116.1387">liquidationSnapshot</text><text fill="#000000" font-family="Arial" font-size="12" lengthAdjust="spacing" textLength="99" x="60.5" y="130.1074">Liquidation Data</text></g><!--entity DP--><g id="elem_DP"><rect fill="#FFFFFF" height="71.9063" rx="2.5" ry="2.5" style="stroke:#666666;stroke-width:0.5;" width="134.1895" x="888" y="286"/><rect fill="#FFFFFF" height="10" style="stroke:#666666;stroke-width:0.5;" width="15" x="1002.1895" y="291"/><rect fill="#FFFFFF" height="2" style="stroke:#666666;stroke-width:0.5;" width="4" x="1000.1895" y="293"/><rect fill="#FFFFFF" height="2" style="stroke:#666666;stroke-width:0.5;" width="4" x="1000.1895" y="297"/><text fill="#000000" font-family="Arial" font-size="12" lengthAdjust="spacing" textLength="70.5586" x="903" y="317.1387">Data Parser</text><text fill="#000000" font-family="Arial" font-size="12" lengthAdjust="spacing" textLength="65.625" x="903" y="331.1074">Parse Data</text><text fill="#000000" font-family="Arial" font-size="12" lengthAdjust="spacing" textLength="94.1895" x="903" y="345.0762">Format Convert</text></g><!--entity DQ--><g id="elem_DQ"><rect fill="#FFFFFF" height="71.9063" rx="2.5" ry="2.5" style="stroke:#666666;stroke-width:0.5;" width="132.7422" x="888.5" y="418"/><rect fill="#FFFFFF" height="10" style="stroke:#666666;stroke-width:0.5;" width="15" x="1001.2422" y="423"/><rect fill="#FFFFFF" height="2" style="stroke:#666666;stroke-width:0.5;" width="4" x="999.2422" y="425"/><rect fill="#FFFFFF" height="2" style="stroke:#666666;stroke-width:0.5;" width="4" x="999.2422" y="429"/><text fill="#000000" font-family="Arial" font-size="12" lengthAdjust="spacing" textLength="71.8887" x="903.5" y="449.1387">Data Queue</text><text fill="#000000" font-family="Arial" font-size="12" lengthAdjust="spacing" textLength="92.7422" x="903.5" y="463.1074">Time Sequence</text><text fill="#000000" font-family="Arial" font-size="12" lengthAdjust="spacing" textLength="77.6133" x="903.5" y="477.0762">Event Queue</text></g><!--entity OBC--><g id="elem_OBC"><rect fill="#FFFFFF" height="71.9063" rx="2.5" ry="2.5" style="stroke:#666666;stroke-width:0.5;" width="157.6445" x="1057" y="550"/><rect fill="#FFFFFF" height="10" style="stroke:#666666;stroke-width:0.5;" width="15" x="1194.6445" y="555"/><rect fill="#FFFFFF" height="2" style="stroke:#666666;stroke-width:0.5;" width="4" x="1192.6445" y="557"/><rect fill="#FFFFFF" height="2" style="stroke:#666666;stroke-width:0.5;" width="4" x="1192.6445" y="561"/><text fill="#000000" font-family="Arial" font-size="12" lengthAdjust="spacing" textLength="105.3105" x="1072" y="581.1387">OrderBook Cache</text><text fill="#000000" font-family="Arial" font-size="12" lengthAdjust="spacing" textLength="117.6445" x="1072" y="595.1074">Depth Maintenance</text><text fill="#000000" font-family="Arial" font-size="12" lengthAdjust="spacing" textLength="56.0977" x="1072" y="609.0762">Snapshot</text></g><!--entity TC--><g id="elem_TC"><rect fill="#FFFFFF" height="71.9063" rx="2.5" ry="2.5" style="stroke:#666666;stroke-width:0.5;" width="133.2871" x="888.5" y="550"/><rect fill="#FFFFFF" height="10" style="stroke:#666666;stroke-width:0.5;" width="15" x="1001.7871" y="555"/><rect fill="#FFFFFF" height="2" style="stroke:#666666;stroke-width:0.5;" width="4" x="999.7871" y="557"/><rect fill="#FFFFFF" height="2" style="stroke:#666666;stroke-width:0.5;" width="4" x="999.7871" y="561"/><text fill="#000000" font-family="Arial" font-size="12" lengthAdjust="spacing" textLength="75.75" x="903.5" y="581.1387">Trade Cache</text><text fill="#000000" font-family="Arial" font-size="12" lengthAdjust="spacing" textLength="75.0352" x="903.5" y="595.1074">Trade Buffer</text><text fill="#000000" font-family="Arial" font-size="12" lengthAdjust="spacing" textLength="93.2871" x="903.5" y="609.0762">Trade Statistics</text></g><!--entity KC--><g id="elem_KC"><rect fill="#FFFFFF" height="71.9063" rx="2.5" ry="2.5" style="stroke:#666666;stroke-width:0.5;" width="132.0098" x="721" y="550"/><rect fill="#FFFFFF" height="10" style="stroke:#666666;stroke-width:0.5;" width="15" x="833.0098" y="555"/><rect fill="#FFFFFF" height="2" style="stroke:#666666;stroke-width:0.5;" width="4" x="831.0098" y="557"/><rect fill="#FFFFFF" height="2" style="stroke:#666666;stroke-width:0.5;" width="4" x="831.0098" y="561"/><text fill="#000000" font-family="Arial" font-size="12" lengthAdjust="spacing" textLength="70.6582" x="736" y="581.1387">Kline Cache</text><text fill="#000000" font-family="Arial" font-size="12" lengthAdjust="spacing" textLength="82.0195" x="736" y="595.1074">Kline Building</text><text fill="#000000" font-family="Arial" font-size="12" lengthAdjust="spacing" textLength="92.0098" x="736" y="609.0762">Tech Indicators</text></g><!--entity VI--><g id="elem_VI"><rect fill="#FFFFFF" height="71.9063" rx="2.5" ry="2.5" style="stroke:#666666;stroke-width:0.5;" width="144.7715" x="712.5" y="718"/><rect fill="#FFFFFF" height="10" style="stroke:#666666;stroke-width:0.5;" width="15" x="837.2715" y="723"/><rect fill="#FFFFFF" height="2" style="stroke:#666666;stroke-width:0.5;" width="4" x="835.2715" y="725"/><rect fill="#FFFFFF" height="2" style="stroke:#666666;stroke-width:0.5;" width="4" x="835.2715" y="729"/><text fill="#000000" font-family="Arial" font-size="12" lengthAdjust="spacing" textLength="104.7715" x="727.5" y="749.1387">Market Indicators</text><text fill="#000000" font-family="Arial" font-size="12" lengthAdjust="spacing" textLength="52.752" x="727.5" y="763.1074">Volatility</text><text fill="#000000" font-family="Arial" font-size="12" lengthAdjust="spacing" textLength="51.334" x="727.5" y="777.0762">Liquidity</text></g><!--entity TF--><g id="elem_TF"><rect fill="#FFFFFF" height="57.9375" rx="2.5" ry="2.5" style="stroke:#666666;stroke-width:0.5;" width="132.9063" x="892.5" y="725"/><rect fill="#FFFFFF" height="10" style="stroke:#666666;stroke-width:0.5;" width="15" x="1005.4063" y="730"/><rect fill="#FFFFFF" height="2" style="stroke:#666666;stroke-width:0.5;" width="4" x="1003.4063" y="732"/><rect fill="#FFFFFF" height="2" style="stroke:#666666;stroke-width:0.5;" width="4" x="1003.4063" y="736"/><text fill="#000000" font-family="Arial" font-size="12" lengthAdjust="spacing" textLength="65.8242" x="907.5" y="756.1387">Trade Flow</text><text fill="#000000" font-family="Arial" font-size="12" lengthAdjust="spacing" textLength="92.9063" x="907.5" y="770.1074">Trade Direction</text></g><!--entity LOB--><g id="elem_LOB"><rect fill="#FFFFFF" height="57.9375" rx="2.5" ry="2.5" style="stroke:#666666;stroke-width:0.5;" width="152.6055" x="1060.5" y="725"/><rect fill="#FFFFFF" height="10" style="stroke:#666666;stroke-width:0.5;" width="15" x="1193.1055" y="730"/><rect fill="#FFFFFF" height="2" style="stroke:#666666;stroke-width:0.5;" width="4" x="1191.1055" y="732"/><rect fill="#FFFFFF" height="2" style="stroke:#666666;stroke-width:0.5;" width="4" x="1191.1055" y="736"/><text fill="#000000" font-family="Arial" font-size="12" lengthAdjust="spacing" textLength="101.5547" x="1075.5" y="756.1387">Limit Order Book</text><text fill="#000000" font-family="Arial" font-size="12" lengthAdjust="spacing" textLength="112.6055" x="1075.5" y="770.1074">Rebuild Orderbook</text></g><!--entity SG--><g id="elem_SG"><rect fill="#FFFFFF" height="71.9063" rx="2.5" ry="2.5" style="stroke:#666666;stroke-width:0.5;" width="141.6133" x="918" y="862"/><rect fill="#FFFFFF" height="10" style="stroke:#666666;stroke-width:0.5;" width="15" x="1039.6133" y="867"/><rect fill="#FFFFFF" height="2" style="stroke:#666666;stroke-width:0.5;" width="4" x="1037.6133" y="869"/><rect fill="#FFFFFF" height="2" style="stroke:#666666;stroke-width:0.5;" width="4" x="1037.6133" y="873"/><text fill="#000000" font-family="Arial" font-size="12" lengthAdjust="spacing" textLength="101.6133" x="933" y="893.1387">Signal Generator</text><text fill="#000000" font-family="Arial" font-size="12" lengthAdjust="spacing" textLength="72.252" x="933" y="907.1074">Signal Logic</text><text fill="#000000" font-family="Arial" font-size="12" lengthAdjust="spacing" textLength="81.5801" x="933" y="921.0762">Trade Trigger</text></g><!--entity RM--><g id="elem_RM"><rect fill="#FFFFFF" height="57.9375" rx="2.5" ry="2.5" style="stroke:#666666;stroke-width:0.5;" width="134.6055" x="1080.5" y="994"/><rect fill="#FFFFFF" height="10" style="stroke:#666666;stroke-width:0.5;" width="15" x="1195.1055" y="999"/><rect fill="#FFFFFF" height="2" style="stroke:#666666;stroke-width:0.5;" width="4" x="1193.1055" y="1001"/><rect fill="#FFFFFF" height="2" style="stroke:#666666;stroke-width:0.5;" width="4" x="1193.1055" y="1005"/><text fill="#000000" font-family="Arial" font-size="12" lengthAdjust="spacing" textLength="81.2871" x="1095.5" y="1025.1387">Risk Manager</text><text fill="#000000" font-family="Arial" font-size="12" lengthAdjust="spacing" textLength="94.6055" x="1095.5" y="1039.1074">Position Control</text></g><!--entity PM--><g id="elem_PM"><rect fill="#FFFFFF" height="71.9063" rx="2.5" ry="2.5" style="stroke:#666666;stroke-width:0.5;" width="143.5645" x="1095" y="862"/><rect fill="#FFFFFF" height="10" style="stroke:#666666;stroke-width:0.5;" width="15" x="1218.5645" y="867"/><rect fill="#FFFFFF" height="2" style="stroke:#666666;stroke-width:0.5;" width="4" x="1216.5645" y="869"/><rect fill="#FFFFFF" height="2" style="stroke:#666666;stroke-width:0.5;" width="4" x="1216.5645" y="873"/><text fill="#000000" font-family="Arial" font-size="12" lengthAdjust="spacing" textLength="103.5645" x="1110" y="893.1387">Position Manager</text><text fill="#000000" font-family="Arial" font-size="12" lengthAdjust="spacing" textLength="93.1758" x="1110" y="907.1074">Position Record</text><text fill="#000000" font-family="Arial" font-size="12" lengthAdjust="spacing" textLength="92.2852" x="1110" y="921.0762">PnL Calculation</text></g><!--entity OG--><g id="elem_OG"><rect fill="#FFFFFF" height="71.9063" rx="2.5" ry="2.5" style="stroke:#666666;stroke-width:0.5;" width="129.1621" x="1083.5" y="1124"/><rect fill="#FFFFFF" height="10" style="stroke:#666666;stroke-width:0.5;" width="15" x="1192.6621" y="1129"/><rect fill="#FFFFFF" height="2" style="stroke:#666666;stroke-width:0.5;" width="4" x="1190.6621" y="1131"/><rect fill="#FFFFFF" height="2" style="stroke:#666666;stroke-width:0.5;" width="4" x="1190.6621" y="1135"/><text fill="#000000" font-family="Arial" font-size="12" lengthAdjust="spacing" textLength="67.5586" x="1098.5" y="1155.1387">Order Type</text><text fill="#000000" font-family="Arial" font-size="12" lengthAdjust="spacing" textLength="89.1621" x="1098.5" y="1169.1074">Order Creation</text><text fill="#000000" font-family="Arial" font-size="12" lengthAdjust="spacing" textLength="85.3477" x="1098.5" y="1183.0762">Param Setting</text></g><!--entity OMG--><g id="elem_OMG"><rect fill="#FFFFFF" height="71.9063" rx="2.5" ry="2.5" style="stroke:#666666;stroke-width:0.5;" width="155.4063" x="1070.5" y="1256"/><rect fill="#FFFFFF" height="10" style="stroke:#666666;stroke-width:0.5;" width="15" x="1205.9063" y="1261"/><rect fill="#FFFFFF" height="2" style="stroke:#666666;stroke-width:0.5;" width="4" x="1203.9063" y="1263"/><rect fill="#FFFFFF" height="2" style="stroke:#666666;stroke-width:0.5;" width="4" x="1203.9063" y="1267"/><text fill="#000000" font-family="Arial" font-size="12" lengthAdjust="spacing" textLength="90.7266" x="1085.5" y="1287.1387">Order Manager</text><text fill="#000000" font-family="Arial" font-size="12" lengthAdjust="spacing" textLength="115.4063" x="1085.5" y="1301.1074">Order Maintenance</text><text fill="#000000" font-family="Arial" font-size="12" lengthAdjust="spacing" textLength="93.7734" x="1085.5" y="1315.0762">Status Tracking</text></g><!--entity ME--><g id="elem_ME"><rect fill="#FFFFFF" height="71.9063" rx="2.5" ry="2.5" style="stroke:#666666;stroke-width:0.5;" width="140.1133" x="1070" y="1388"/><rect fill="#FFFFFF" height="10" style="stroke:#666666;stroke-width:0.5;" width="15" x="1190.1133" y="1393"/><rect fill="#FFFFFF" height="2" style="stroke:#666666;stroke-width:0.5;" width="4" x="1188.1133" y="1395"/><rect fill="#FFFFFF" height="2" style="stroke:#666666;stroke-width:0.5;" width="4" x="1188.1133" y="1399"/><text fill="#000000" font-family="Arial" font-size="12" lengthAdjust="spacing" textLength="100.1133" x="1085" y="1419.1387">Matching Engine</text><text fill="#000000" font-family="Arial" font-size="12" lengthAdjust="spacing" textLength="93.2988" x="1085" y="1433.1074">Order Matching</text><text fill="#000000" font-family="Arial" font-size="12" lengthAdjust="spacing" textLength="59.2559" x="1085" y="1447.0762">Execution</text></g><!--entity IS--><g id="elem_IS"><rect fill="#FFFFFF" height="71.9063" rx="2.5" ry="2.5" style="stroke:#666666;stroke-width:0.5;" width="143.2305" x="870.5" y="1256"/><rect fill="#FFFFFF" height="10" style="stroke:#666666;stroke-width:0.5;" width="15" x="993.7305" y="1261"/><rect fill="#FFFFFF" height="2" style="stroke:#666666;stroke-width:0.5;" width="4" x="991.7305" y="1263"/><rect fill="#FFFFFF" height="2" style="stroke:#666666;stroke-width:0.5;" width="4" x="991.7305" y="1267"/><text fill="#000000" font-family="Arial" font-size="12" lengthAdjust="spacing" textLength="103.2305" x="885.5" y="1287.1387">Impact Simulator</text><text fill="#000000" font-family="Arial" font-size="12" lengthAdjust="spacing" textLength="86.9941" x="885.5" y="1301.1074">Market Impact</text><text fill="#000000" font-family="Arial" font-size="12" lengthAdjust="spacing" textLength="51.873" x="885.5" y="1315.0762">Slippage</text></g><!--entity ES--><g id="elem_ES"><rect fill="#FFFFFF" height="71.9063" rx="2.5" ry="2.5" style="stroke:#666666;stroke-width:0.5;" width="160.5742" x="674.5" y="1256"/><rect fill="#FFFFFF" height="10" style="stroke:#666666;stroke-width:0.5;" width="15" x="815.0742" y="1261"/><rect fill="#FFFFFF" height="2" style="stroke:#666666;stroke-width:0.5;" width="4" x="813.0742" y="1263"/><rect fill="#FFFFFF" height="2" style="stroke:#666666;stroke-width:0.5;" width="4" x="813.0742" y="1267"/><text fill="#000000" font-family="Arial" font-size="12" lengthAdjust="spacing" textLength="120.5742" x="689.5" y="1287.1387">Exchange Simulator</text><text fill="#000000" font-family="Arial" font-size="12" lengthAdjust="spacing" textLength="82.5176" x="689.5" y="1301.1074">Trading Rules</text><text fill="#000000" font-family="Arial" font-size="12" lengthAdjust="spacing" textLength="27.9199" x="689.5" y="1315.0762">Fees</text></g><!--entity LSM--><g id="elem_LSM"><rect fill="#FFFFFF" height="71.9063" rx="2.5" ry="2.5" style="stroke:#666666;stroke-width:0.5;" width="150.0918" x="489" y="1256"/><rect fill="#FFFFFF" height="10" style="stroke:#666666;stroke-width:0.5;" width="15" x="619.0918" y="1261"/><rect fill="#FFFFFF" height="2" style="stroke:#666666;stroke-width:0.5;" width="4" x="617.0918" y="1263"/><rect fill="#FFFFFF" height="2" style="stroke:#666666;stroke-width:0.5;" width="4" x="617.0918" y="1267"/><text fill="#000000" font-family="Arial" font-size="12" lengthAdjust="spacing" textLength="109.1602" x="504" y="1287.1387">Latency Simulator</text><text fill="#000000" font-family="Arial" font-size="12" lengthAdjust="spacing" textLength="88.3301" x="504" y="1301.1074">Network Delay</text><text fill="#000000" font-family="Arial" font-size="12" lengthAdjust="spacing" textLength="110.0918" x="504" y="1315.0762">Exchange Latency</text></g><!--entity PLA--><g id="elem_PLA"><rect fill="#FFFFFF" height="57.9375" rx="2.5" ry="2.5" style="stroke:#666666;stroke-width:0.5;" width="114.7832" x="1330.5" y="994"/><rect fill="#FFFFFF" height="10" style="stroke:#666666;stroke-width:0.5;" width="15" x="1425.2832" y="999"/><rect fill="#FFFFFF" height="2" style="stroke:#666666;stroke-width:0.5;" width="4" x="1423.2832" y="1001"/><rect fill="#FFFFFF" height="2" style="stroke:#666666;stroke-width:0.5;" width="4" x="1423.2832" y="1005"/><text fill="#000000" font-family="Arial" font-size="12" lengthAdjust="spacing" textLength="74.7832" x="1345.5" y="1025.1387">PnL Analysis</text><text fill="#000000" font-family="Arial" font-size="12" lengthAdjust="spacing" textLength="72.2461" x="1345.5" y="1039.1074">Risk Metrics</text></g><!--entity PR--><g id="elem_PR"><rect fill="#FFFFFF" height="57.9375" rx="2.5" ry="2.5" style="stroke:#666666;stroke-width:0.5;" width="160.8145" x="1319.5" y="1131"/><rect fill="#FFFFFF" height="10" style="stroke:#666666;stroke-width:0.5;" width="15" x="1460.3145" y="1136"/><rect fill="#FFFFFF" height="2" style="stroke:#666666;stroke-width:0.5;" width="4" x="1458.3145" y="1138"/><rect fill="#FFFFFF" height="2" style="stroke:#666666;stroke-width:0.5;" width="4" x="1458.3145" y="1142"/><text fill="#000000" font-family="Arial" font-size="12" lengthAdjust="spacing" textLength="120.8145" x="1334.5" y="1162.1387">Performance Report</text><text fill="#000000" font-family="Arial" font-size="12" lengthAdjust="spacing" textLength="54.8555" x="1334.5" y="1176.1074">Statistics</text></g><!--entity VZ--><g id="elem_VZ"><rect fill="#FFFFFF" height="57.9375" rx="2.5" ry="2.5" style="stroke:#666666;stroke-width:0.5;" width="126.2324" x="1337" y="1263"/><rect fill="#FFFFFF" height="10" style="stroke:#666666;stroke-width:0.5;" width="15" x="1443.2324" y="1268"/><rect fill="#FFFFFF" height="2" style="stroke:#666666;stroke-width:0.5;" width="4" x="1441.2324" y="1270"/><rect fill="#FFFFFF" height="2" style="stroke:#666666;stroke-width:0.5;" width="4" x="1441.2324" y="1274"/><text fill="#000000" font-family="Arial" font-size="12" lengthAdjust="spacing" textLength="76.0605" x="1352" y="1294.1387">Visualization</text><text fill="#000000" font-family="Arial" font-size="12" lengthAdjust="spacing" textLength="86.2324" x="1352" y="1308.1074">Chart Analysis</text></g><!--link AT to DP--><g id="link_AT_DP"><path d="M1727.56,150.39 C1710.45,167.43 1687.92,186.59 1664,198 C1445.8,302.04 1158.3892,318.9724 1028.1292,321.0924 " fill="none" id="AT-to-DP" style="stroke:#666666;stroke-width:1.0;"/><polygon fill="#666666" points="1022.13,321.19,1031.1939,325.043,1027.1293,321.1086,1031.0637,317.0441,1022.13,321.19" style="stroke:#666666;stroke-width:1.0;"/></g><!--link BD to DP--><g id="link_BD_DP"><path d="M1549.51,150.34 C1534.16,167.16 1513.89,186.14 1492,198 C1337.47,281.7 1134.0907,308.1387 1028.2307,316.6587 " fill="none" id="BD-to-DP" style="stroke:#666666;stroke-width:1.0;"/><polygon fill="#666666" points="1022.25,317.14,1031.5419,320.4051,1027.2339,316.7389,1030.9001,312.4309,1022.25,317.14" style="stroke:#666666;stroke-width:1.0;"/></g><!--link BT to DP--><g id="link_BT_DP"><path d="M1366.24,150.04 C1349.47,166.38 1328,185.03 1306,198 C1214.37,252.04 1101.1294,286.0088 1027.8894,304.3988 " fill="none" id="BT-to-DP" style="stroke:#666666;stroke-width:1.0;"/><polygon fill="#666666" points="1022.07,305.86,1031.7732,307.5478,1026.9195,304.6423,1029.8249,299.7886,1022.07,305.86" style="stroke:#666666;stroke-width:1.0;"/></g><!--link TR to DP--><g id="link_TR_DP"><path d="M1173.92,150.18 C1125.32,188.1 1053.1499,244.4083 1004.6299,282.2783 " fill="none" id="TR-to-DP" style="stroke:#666666;stroke-width:1.0;"/><polygon fill="#666666" points="999.9,285.97,1009.4559,283.5857,1003.8416,282.8936,1004.5337,277.2793,999.9,285.97" style="stroke:#666666;stroke-width:1.0;"/></g><!--link KL to DP--><g id="link_KL_DP"><path d="M1024.91,143.21 C1010.31,180.35 986.8358,240.0362 970.9958,280.3162 " fill="none" id="KL-to-DP" style="stroke:#666666;stroke-width:1.0;"/><polygon fill="#666666" points="968.8,285.9,975.8162,278.9882,970.6298,281.2469,968.3712,276.0605,968.8,285.9" style="stroke:#666666;stroke-width:1.0;"/></g><!--link IPK to DP--><g id="link_IPK_DP"><path d="M885.96,143.21 C900.38,180.35 923.5583,240.0268 939.1983,280.3068 " fill="none" id="IPK-to-DP" style="stroke:#666666;stroke-width:1.0;"/><polygon fill="#666666" points="941.37,285.9,941.8412,276.0624,939.5602,281.239,934.3836,278.9581,941.37,285.9" style="stroke:#666666;stroke-width:1.0;"/></g><!--link MPK to DP--><g id="link_MPK_DP"><path d="M730.41,143.24 C746.9,159.76 768.57,180.7 789,198 C826.09,229.41 865.5243,258.5612 899.0443,282.3112 " fill="none" id="MPK-to-DP" style="stroke:#666666;stroke-width:1.0;"/><polygon fill="#666666" points="903.94,285.78,898.909,277.3131,899.8603,282.8894,894.284,283.8407,903.94,285.78" style="stroke:#666666;stroke-width:1.0;"/></g><!--link PIK to DP--><g id="link_PIK_DP"><path d="M546.62,143.32 C565.61,160.91 591.78,182.94 618,198 C705.63,248.33 811.7703,282.6592 881.9903,302.2292 " fill="none" id="PIK-to-DP" style="stroke:#666666;stroke-width:1.0;"/><polygon fill="#666666" points="887.77,303.84,880.1743,297.5707,882.9536,302.4977,878.0265,305.277,887.77,303.84" style="stroke:#666666;stroke-width:1.0;"/></g><!--link MT to DP--><g id="link_MT_DP"><path d="M339.95,143.15 C360.88,161.36 390.29,184.15 420,198 C578.08,271.69 777.578,302.2062 881.898,313.9962 " fill="none" id="MT-to-DP" style="stroke:#666666;stroke-width:1.0;"/><polygon fill="#666666" points="887.86,314.67,879.3661,309.6846,882.8916,314.1085,878.4677,317.634,887.86,314.67" style="stroke:#666666;stroke-width:1.0;"/></g><!--link LS to DP--><g id="link_LS_DP"><path d="M150.48,143.39 C168.79,161.94 195.09,185.05 223,198 C450.34,303.53 748.7705,319.6343 881.9205,321.3143 " fill="none" id="LS-to-DP" style="stroke:#666666;stroke-width:1.0;"/><polygon fill="#666666" points="887.92,321.39,878.9712,317.2768,882.9204,321.3269,878.8703,325.2761,887.92,321.39" style="stroke:#666666;stroke-width:1.0;"/></g><!--link DP to DQ--><g id="link_DP_DQ"><path d="M955,358.18 C955,376.68 955,393.29 955,411.79 " fill="none" id="DP-to-DQ" style="stroke:#666666;stroke-width:1.0;"/><polygon fill="#666666" points="955,417.79,959,408.79,955,412.79,951,408.79,955,417.79" style="stroke:#666666;stroke-width:1.0;"/></g><!--link DQ to OBC--><g id="link_DQ_OBC"><path d="M1010.09,490.19 C1019.81,496.65 1029.77,503.43 1039,510 C1056.68,522.6 1070.9516,533.3664 1087.4016,546.2164 " fill="none" id="DQ-to-OBC" style="stroke:#666666;stroke-width:1.0;"/><polygon fill="#666666" points="1092.13,549.91,1087.4998,541.2174,1088.1897,546.832,1082.5751,547.5219,1092.13,549.91" style="stroke:#666666;stroke-width:1.0;"/></g><!--link DQ to TC--><g id="link_DQ_TC"><path d="M955,490.18 C955,508.68 955,525.29 955,543.79 " fill="none" id="DQ-to-TC" style="stroke:#666666;stroke-width:1.0;"/><polygon fill="#666666" points="955,549.79,959,540.79,955,544.79,951,540.79,955,549.79" style="stroke:#666666;stroke-width:1.0;"/></g><!--link DQ to KC--><g id="link_DQ_KC"><path d="M898.62,490.25 C889.23,496.59 879.71,503.32 871,510 C855.02,522.26 842.7354,532.7493 828.4654,545.7493 " fill="none" id="DQ-to-KC" style="stroke:#666666;stroke-width:1.0;"/><polygon fill="#666666" points="824.03,549.79,833.3769,546.6859,827.7262,546.4228,827.9893,540.772,824.03,549.79" style="stroke:#666666;stroke-width:1.0;"/></g><!--link OBC to LOB--><g id="link_OBC_LOB"><path d="M1136.21,622.2 C1136.4,652.85 1136.624,690.6801 1136.794,718.9901 " fill="none" id="OBC-to-LOB" style="stroke:#666666;stroke-width:1.0;"/><polygon fill="#666666" points="1136.83,724.99,1140.7759,715.9661,1136.8,719.9901,1132.776,716.0142,1136.83,724.99" style="stroke:#666666;stroke-width:1.0;"/></g><!--link TC to TF--><g id="link_TC_TF"><path d="M955.85,622.2 C956.59,652.85 957.4938,690.6818 958.1838,718.9918 " fill="none" id="TC-to-TF" style="stroke:#666666;stroke-width:1.0;"/><polygon fill="#666666" points="958.33,724.99,962.1095,715.8952,958.2082,719.9915,954.1119,716.0901,958.33,724.99" style="stroke:#666666;stroke-width:1.0;"/></g><!--link KC to VI--><g id="link_KC_VI"><path d="M786.58,622.2 C786.24,650.38 785.8324,683.6904 785.4924,711.8504 " fill="none" id="KC-to-VI" style="stroke:#666666;stroke-width:1.0;"/><polygon fill="#666666" points="785.42,717.85,789.5284,708.8989,785.4804,712.8504,781.5289,708.8024,785.42,717.85" style="stroke:#666666;stroke-width:1.0;"/></g><!--link LOB to SG--><g id="link_LOB_SG"><path d="M1107.76,783.05 C1084.17,805.69 1055.1997,833.4862 1029.8497,857.8062 " fill="none" id="LOB-to-SG" style="stroke:#666666;stroke-width:1.0;"/><polygon fill="#666666" points="1025.52,861.96,1034.7837,858.6158,1029.1281,858.4985,1029.2454,852.8429,1025.52,861.96" style="stroke:#666666;stroke-width:1.0;"/></g><!--link TF to SG--><g id="link_TF_SG"><path d="M964.93,783.05 C969.71,805.69 975.2193,831.7697 980.3593,856.0897 " fill="none" id="TF-to-SG" style="stroke:#666666;stroke-width:1.0;"/><polygon fill="#666666" points="981.6,861.96,983.6525,852.3274,980.5661,857.0681,975.8254,853.9816,981.6,861.96" style="stroke:#666666;stroke-width:1.0;"/></g><!--link VI to SG--><g id="link_VI_SG"><path d="M835.43,790.1 C866.81,811.95 902.1153,836.5226 933.5253,858.3826 " fill="none" id="VI-to-SG" style="stroke:#666666;stroke-width:1.0;"/><polygon fill="#666666" points="938.45,861.81,933.3478,853.3858,934.3461,858.9538,928.778,859.9521,938.45,861.81" style="stroke:#666666;stroke-width:1.0;"/></g><!--link SG to RM--><g id="link_SG_RM"><path d="M1034.56,934.25 C1059.06,953.2 1084.114,972.5791 1107.024,990.2991 " fill="none" id="SG-to-RM" style="stroke:#666666;stroke-width:1.0;"/><polygon fill="#666666" points="1111.77,993.97,1107.0982,985.2997,1107.815,990.9109,1102.2037,991.6277,1111.77,993.97" style="stroke:#666666;stroke-width:1.0;"/></g><!--link RM to OG--><g id="link_RM_OG"><path d="M1148,1052.3 C1148,1073.02 1148,1095.28 1148,1117.52 " fill="none" id="RM-to-OG" style="stroke:#666666;stroke-width:1.0;"/><polygon fill="#666666" points="1148,1123.52,1152,1114.52,1148,1118.52,1144,1114.52,1148,1123.52" style="stroke:#666666;stroke-width:1.0;"/></g><!--link PM to RM--><g id="link_PM_RM"><path d="M1161.56,934.25 C1158.64,953.13 1156.0051,970.1502 1153.2751,987.8402 " fill="none" id="PM-to-RM" style="stroke:#666666;stroke-width:1.0;"/><polygon fill="#666666" points="1152.36,993.77,1157.6859,985.4854,1153.1226,988.8285,1149.7795,984.2652,1152.36,993.77" style="stroke:#666666;stroke-width:1.0;"/></g><!--link OG to OMG--><g id="link_OG_OMG"><path d="M1148,1196.18 C1148,1214.68 1148,1231.29 1148,1249.79 " fill="none" id="OG-to-OMG" style="stroke:#666666;stroke-width:1.0;"/><polygon fill="#666666" points="1148,1255.79,1152,1246.79,1148,1250.79,1144,1246.79,1148,1255.79" style="stroke:#666666;stroke-width:1.0;"/></g><!--link OMG to ME--><g id="link_OMG_ME"><path d="M1145.84,1328.18 C1144.7,1346.68 1143.679,1363.3014 1142.539,1381.8014 " fill="none" id="OMG-to-ME" style="stroke:#666666;stroke-width:1.0;"/><polygon fill="#666666" points="1142.17,1387.79,1146.716,1379.0531,1142.4775,1382.7995,1138.7311,1378.561,1142.17,1387.79" style="stroke:#666666;stroke-width:1.0;"/></g><!--link ME to PM--><g id="link_ME_PM"><path d="M1210.04,1388.53 C1223.29,1378.65 1235.38,1366.52 1243,1352 C1325.28,1195.35 1311.09,1112.78 1233,954 C1229.45,946.77 1228.5817,944.5007 1222.9217,938.5407 " fill="none" id="ME-to-PM" style="stroke:#666666;stroke-width:1.0;"/><polygon fill="#666666" points="1218.79,934.19,1222.0871,943.4706,1222.2331,937.8156,1227.8881,937.9616,1218.79,934.19" style="stroke:#666666;stroke-width:1.0;"/></g><!--link LSM to ME--><g id="link_LSM_ME"><path d="M610.73,1328 C624.95,1337.14 641.05,1346.07 657,1352 C797.23,1404.09 967.6944,1417.8703 1063.7644,1421.5503 " fill="none" id="LSM-to-ME" style="stroke:#666666;stroke-width:1.0;stroke-dasharray:7.0,7.0;"/><polygon fill="#666666" points="1069.76,1421.78,1060.9197,1417.4384,1064.7637,1421.5886,1060.6135,1425.4326,1069.76,1421.78" style="stroke:#666666;stroke-width:1.0;"/></g><!--link ES to ME--><g id="link_ES_ME"><path d="M806.63,1328.02 C821.17,1336.77 837.31,1345.51 853,1352 C924.15,1381.43 1004.5498,1399.6601 1063.8298,1410.6101 " fill="none" id="ES-to-ME" style="stroke:#666666;stroke-width:1.0;stroke-dasharray:7.0,7.0;"/><polygon fill="#666666" points="1069.73,1411.7,1061.6063,1406.1317,1064.8132,1410.7918,1060.1531,1413.9987,1069.73,1411.7" style="stroke:#666666;stroke-width:1.0;"/></g><!--link IS to ME--><g id="link_IS_ME"><path d="M995.32,1328.01 C1023.61,1346.58 1053.2652,1366.0458 1081.5652,1384.6358 " fill="none" id="IS-to-ME" style="stroke:#666666;stroke-width:1.0;stroke-dasharray:7.0,7.0;"/><polygon fill="#666666" points="1086.58,1387.93,1081.2539,1379.6455,1082.401,1385.1848,1076.8617,1386.3319,1086.58,1387.93" style="stroke:#666666;stroke-width:1.0;"/></g><!--link PM to PLA--><g id="link_PM_PLA"><path d="M1234.35,934.11 C1246.59,940.64 1259.21,947.46 1271,954 C1294.11,966.82 1314.3341,978.4752 1335.5341,990.9052 " fill="none" id="PM-to-PLA" style="stroke:#666666;stroke-width:1.0;"/><polygon fill="#666666" points="1340.71,993.94,1334.9693,985.9372,1336.3967,991.411,1330.9229,992.8385,1340.71,993.94" style="stroke:#666666;stroke-width:1.0;"/></g><!--link PLA to PR--><g id="link_PLA_PR"><path d="M1390.52,1052.3 C1392.56,1075.34 1394.908,1101.7336 1396.958,1124.7636 " fill="none" id="PLA-to-PR" style="stroke:#666666;stroke-width:1.0;"/><polygon fill="#666666" points="1397.49,1130.74,1400.6763,1121.4208,1397.0467,1125.7597,1392.7078,1122.1301,1397.49,1130.74" style="stroke:#666666;stroke-width:1.0;"/></g><!--link PR to VZ--><g id="link_PR_VZ"><path d="M1400,1189.21 C1400,1211.01 1400,1235.06 1400,1256.85 " fill="none" id="PR-to-VZ" style="stroke:#666666;stroke-width:1.0;"/><polygon fill="#666666" points="1400,1262.85,1404,1253.85,1400,1257.85,1396,1253.85,1400,1262.85" style="stroke:#666666;stroke-width:1.0;"/></g><!--SRC=[XLRRRkCs47tNLn1Re7tA9ccnGPyAMBRb6fOsZgK6wCPzuCfZcR14Uabg4s-HV-zmg9iT1pNWP4IUkSySsUo5F73DAsPsVAEUXIpObfS60jFTJ63Bwz96IjfK_01s- -lboy-y0ZRIWfU3-v7MwdciIgNPJtVq6LpcgZee2TAoVmE6dr3f3UXJD9tpV5zeLSjDSnVH9tWDWbzS1482osjZbJE90CEsYDg8xHQqisuWjq99Ct1zG9EyW4kERp_TVHhVUEEXa5pcm2RSSfQgMgDynM9Hx2px6yfIFGUjfGyNi1yer71wr_Zfi2l-p1Akzs09VevpdoTU59dc6p1hEIeA3GMti67jqLAB7AuVLNaz4Thdzm_ZXesoti9NfVOJEDZTMiQtL_7jpSqDQvxlNSBkdloJPZWvrSn4lWUzbY4OYuNON8_CVYrNmCihAx3LVnqs697nkWEljedGvTX6Uwz5WUKfsGfohBLNobQaz4f_J-j3sR6VsQ9qlNstH7jtxSp_6OyV-qmMSGyHSWClP6xHWEVkXD4HeUVBHG-li2adQDUb0JWPWWyQAb5NPB35B_qPeqDIMSuNx-RPp4025ZsOYpbM_iv7WjZKSYkCnICVqA3ofVXM2smApa8g-S7ibCNEzuTzXUAq2SbFEOPZNPSZN0ruLfXnE-HXMSDWnDy0CUJfNVHR59rFE6t1KgiSZ76i4lCZQ9VWJVHxXwQeFP9huuQD_bESQnafNN7Bnaf-1sqfxidoJE-XXXhMCdC3cSAt6d03rtBwtQqztNcrXqwj4quZ7VDy1vV28rUqBQ7R5iAj9MqHRh2G5cZhrrt5oU5zE3wrG8lGQlk7i7Ryr3wTjJKxq_UBqEZxXx0MvGPBYnOWtxc14pcto7v-1te3h_ytVcuffR6w9XgvsAG6sJjPI-GU3BaKzjWE6Oha-t4Ud2KU8LEscPxoLHRrs5XKmZ8gDdFLTcpprMN9EhhoqtiVlfjIYlHZeJYogKJ6WVFv93-fA1mNpK22TibWy_n9h0gHjt5co5a5QFAOpdhjbJ1xRBr4TsvWbH6qMpYcLgkIuAkaXtU0jogU3F50njZQCgzBtjLbcRoReY-GDrVXe5_CqOEoum4QicTZ3MIUbWnVWIbOY-FZvtLshjb5spuEHnrdjJQEtFDzPo6P3QV5vZktzRu9lH5_Z0lw0ddTvPfCts-dg9ggz0rzEvtp2XMG6ZtODRITLxh0Y4jnEA11J_XfhpbzoNTSegU1hck_2tvLbuxH8sXUSjE1Nen39lFZKEqpMABE2PJyw59iB3VGXdUJ8V6ESEYEHXXyqwtWeBJhHqUzCmqWU-wzXFMTZxeNnfERf1Q8sqEJwjyVVgZYKOC3lNNiwdwlU6k-gmC6MlgtyzEZC3KlnOzcTiOxhctdmw_xb-QNc2FIBMww2KOPkxhwmz5rEEcaxYnRjT8YRYLy2xTYqeluxknEE_KuRQLWilJYGp1v8CaHRoDcdOHS6E05oOuxCYyYzIoyX8GLu0N9kEfPr4gFyrOAqXc9kDghnBkQ1SkaFGlk_RLR0_oIZ6ETJ4d2PSQe4_Rn8vrEqrQQTr9hoxK8lrvU1KjVgiSl_m40]--></g></svg>