<svg xmlns="http://www.w3.org/2000/svg" xmlns:xlink="http://www.w3.org/1999/xlink" contentStyleType="text/css" height="733px" preserveAspectRatio="none" style="width:1089px;height:733px;background:#FFFFFF;" version="1.1" viewBox="0 0 1089 733" width="1089px" zoomAndPan="magnify"><defs/><g><!--cluster Order Management System--><g id="cluster_Order Management System"><path d="M8.5,6 L194.9375,6 A3.75,3.75 0 0 1 197.4375,8.5 L204.4375,25.9688 L1079.5,25.9688 A2.5,2.5 0 0 1 1082,28.4688 L1082,723.5 A2.5,2.5 0 0 1 1079.5,726 L8.5,726 A2.5,2.5 0 0 1 6,723.5 L6,8.5 A2.5,2.5 0 0 1 8.5,6 " fill="none" style="stroke:#000000;stroke-width:1.5;"/><line style="stroke:#000000;stroke-width:1.5;" x1="6" x2="204.4375" y1="25.9688" y2="25.9688"/><text fill="#000000" font-family="Arial" font-size="12" font-weight="bold" lengthAdjust="spacing" textLength="185.4375" x="10" y="19.1387">Order Management System</text></g><!--class OrderType--><g id="elem_OrderType"><rect codeLine="12" fill="#FFFFFF" height="129.8125" id="OrderType" rx="2.5" ry="2.5" style="stroke:#1565C0;stroke-width:0.5;" width="151.7559" x="320" y="242"/><ellipse cx="360.1053" cy="257" fill="#A9DCDF" rx="10" ry="10" style="stroke:#181818;stroke-width:1.0;"/><path d="M359.7146,254.0781 L358.9021,257.6563 L360.5428,257.6563 L359.7146,254.0781 Z M358.6678,252.5 L360.7771,252.5 L363.1365,261.25 L361.4021,261.25 L360.8709,259.0938 L358.5584,259.0938 L358.0271,261.25 L356.2928,261.25 L358.6678,252.5 Z " fill="#000000"/><text fill="#000000" font-family="Arial" font-size="12" font-style="italic" lengthAdjust="spacing" textLength="63.7441" x="378.9064" y="261.1543">OrderType</text><line style="stroke:#1565C0;stroke-width:0.5;" x1="321" x2="470.7559" y1="272" y2="272"/><ellipse cx="331" cy="284.4844" fill="none" rx="3" ry="3" style="stroke:#038048;stroke-width:1.0;"/><text fill="#000000" font-family="Arial" font-size="12" lengthAdjust="spacing" textLength="91.6582" x="339" y="287.1387">orderSize: float</text><ellipse cx="331" cy="298.4531" fill="none" rx="3" ry="3" style="stroke:#038048;stroke-width:1.0;"/><text fill="#000000" font-family="Arial" font-size="12" lengthAdjust="spacing" textLength="66.8906" x="339" y="301.1074">side: string</text><ellipse cx="331" cy="312.4219" fill="none" rx="3" ry="3" style="stroke:#038048;stroke-width:1.0;"/><text fill="#000000" font-family="Arial" font-size="12" lengthAdjust="spacing" textLength="126.7559" x="339" y="315.0762">timestamp: datetime</text><ellipse cx="331" cy="326.3906" fill="none" rx="3" ry="3" style="stroke:#038048;stroke-width:1.0;"/><text fill="#000000" font-family="Arial" font-size="12" lengthAdjust="spacing" textLength="79.1777" x="339" y="329.0449">status: string</text><line style="stroke:#1565C0;stroke-width:0.5;" x1="321" x2="470.7559" y1="335.875" y2="335.875"/><ellipse cx="331" cy="348.3594" fill="#84BE84" rx="3" ry="3" style="stroke:#038048;stroke-width:1.0;"/><text fill="#000000" font-family="Arial" font-size="12" font-style="italic" lengthAdjust="spacing" textLength="57.5449" x="339" y="351.0137">validate()</text><ellipse cx="331" cy="362.3281" fill="#84BE84" rx="3" ry="3" style="stroke:#038048;stroke-width:1.0;"/><text fill="#000000" font-family="Arial" font-size="12" font-style="italic" lengthAdjust="spacing" textLength="57.5215" x="339" y="364.9824">execute()</text></g><!--class MarketOrder--><g id="elem_MarketOrder"><rect codeLine="21" fill="#FFFFFF" height="101.875" id="MarketOrder" rx="2.5" ry="2.5" style="stroke:#1565C0;stroke-width:0.5;" width="175.9082" x="22" y="439"/><ellipse cx="67.959" cy="454" fill="#ADD1B2" rx="10" ry="10" style="stroke:#181818;stroke-width:1.0;"/><path d="M69.7871,458.25 Q69.3809,458.4531 68.9277,458.5625 Q68.4746,458.6719 67.9902,458.6719 Q66.209,458.6719 65.2715,457.5156 Q64.3496,456.3438 64.3496,454.1406 Q64.3496,451.9219 65.2715,450.7656 Q66.209,449.5938 67.9902,449.5938 Q68.4746,449.5938 68.9277,449.7031 Q69.3965,449.7969 69.7871,450.0156 L69.7871,451.9375 Q69.3496,451.5313 68.9277,451.3438 Q68.5059,451.1406 68.0684,451.1406 Q67.1152,451.1406 66.6309,451.9063 Q66.1465,452.6563 66.1465,454.1406 Q66.1465,455.6094 66.6309,456.3594 Q67.1152,457.1094 68.0684,457.1094 Q68.5059,457.1094 68.9277,456.9219 Q69.3496,456.7344 69.7871,456.3281 L69.7871,458.25 Z " fill="#000000"/><text fill="#000000" font-family="Arial" font-size="12" lengthAdjust="spacing" textLength="75.9902" x="86.959" y="458.1543">MarketOrder</text><line style="stroke:#1565C0;stroke-width:0.5;" x1="23" x2="196.9082" y1="469" y2="469"/><ellipse cx="33" cy="481.4844" fill="none" rx="3" ry="3" style="stroke:#038048;stroke-width:1.0;"/><text fill="#000000" font-family="Arial" font-size="12" lengthAdjust="spacing" textLength="124.7227" x="41" y="484.1387">estimatedPrice: float</text><ellipse cx="33" cy="495.4531" fill="none" rx="3" ry="3" style="stroke:#038048;stroke-width:1.0;"/><text fill="#000000" font-family="Arial" font-size="12" lengthAdjust="spacing" textLength="144.5859" x="41" y="498.1074">slippageTolerance: float</text><line style="stroke:#1565C0;stroke-width:0.5;" x1="23" x2="196.9082" y1="504.9375" y2="504.9375"/><ellipse cx="33" cy="517.4219" fill="#84BE84" rx="3" ry="3" style="stroke:#038048;stroke-width:1.0;"/><text fill="#000000" font-family="Arial" font-size="12" lengthAdjust="spacing" textLength="105.1289" x="41" y="520.0762">calculateImpact()</text><ellipse cx="33" cy="531.3906" fill="#84BE84" rx="3" ry="3" style="stroke:#038048;stroke-width:1.0;"/><text fill="#000000" font-family="Arial" font-size="12" lengthAdjust="spacing" textLength="150.9082" x="41" y="534.0449">estimateExecutionPrice()</text></g><!--class LimitOrder--><g id="elem_LimitOrder"><rect codeLine="28" fill="#FFFFFF" height="101.875" id="LimitOrder" rx="2.5" ry="2.5" style="stroke:#1565C0;stroke-width:0.5;" width="173.7402" x="233" y="439"/><ellipse cx="283.8398" cy="454" fill="#ADD1B2" rx="10" ry="10" style="stroke:#181818;stroke-width:1.0;"/><path d="M285.668,458.25 Q285.2617,458.4531 284.8086,458.5625 Q284.3555,458.6719 283.8711,458.6719 Q282.0898,458.6719 281.1523,457.5156 Q280.2305,456.3438 280.2305,454.1406 Q280.2305,451.9219 281.1523,450.7656 Q282.0898,449.5938 283.8711,449.5938 Q284.3555,449.5938 284.8086,449.7031 Q285.2773,449.7969 285.668,450.0156 L285.668,451.9375 Q285.2305,451.5313 284.8086,451.3438 Q284.3867,451.1406 283.9492,451.1406 Q282.9961,451.1406 282.5117,451.9063 Q282.0273,452.6563 282.0273,454.1406 Q282.0273,455.6094 282.5117,456.3594 Q282.9961,457.1094 283.9492,457.1094 Q284.3867,457.1094 284.8086,456.9219 Q285.2305,456.7344 285.668,456.3281 L285.668,458.25 Z " fill="#000000"/><text fill="#000000" font-family="Arial" font-size="12" lengthAdjust="spacing" textLength="64.0605" x="302.8398" y="458.1543">LimitOrder</text><line style="stroke:#1565C0;stroke-width:0.5;" x1="234" x2="405.7402" y1="469" y2="469"/><ellipse cx="244" cy="481.4844" fill="none" rx="3" ry="3" style="stroke:#038048;stroke-width:1.0;"/><text fill="#000000" font-family="Arial" font-size="12" lengthAdjust="spacing" textLength="90.6973" x="252" y="484.1387">limitPrice: float</text><ellipse cx="244" cy="495.4531" fill="none" rx="3" ry="3" style="stroke:#038048;stroke-width:1.0;"/><text fill="#000000" font-family="Arial" font-size="12" lengthAdjust="spacing" textLength="113.7188" x="252" y="498.1074">timeInForce: string</text><line style="stroke:#1565C0;stroke-width:0.5;" x1="234" x2="405.7402" y1="504.9375" y2="504.9375"/><ellipse cx="244" cy="517.4219" fill="#84BE84" rx="3" ry="3" style="stroke:#038048;stroke-width:1.0;"/><text fill="#000000" font-family="Arial" font-size="12" lengthAdjust="spacing" textLength="118.9688" x="252" y="520.0762">checkPriceValidity()</text><ellipse cx="244" cy="531.3906" fill="#84BE84" rx="3" ry="3" style="stroke:#038048;stroke-width:1.0;"/><text fill="#000000" font-family="Arial" font-size="12" lengthAdjust="spacing" textLength="148.7402" x="252" y="534.0449">estimateQueuePosition()</text></g><!--class IOCOrder--><g id="elem_IOCOrder"><rect codeLine="35" fill="#FFFFFF" height="101.875" id="IOCOrder" rx="2.5" ry="2.5" style="stroke:#1565C0;stroke-width:0.5;" width="158.3008" x="442" y="439"/><ellipse cx="489.3125" cy="454" fill="#ADD1B2" rx="10" ry="10" style="stroke:#181818;stroke-width:1.0;"/><path d="M491.1406,458.25 Q490.7344,458.4531 490.2813,458.5625 Q489.8281,458.6719 489.3438,458.6719 Q487.5625,458.6719 486.625,457.5156 Q485.7031,456.3438 485.7031,454.1406 Q485.7031,451.9219 486.625,450.7656 Q487.5625,449.5938 489.3438,449.5938 Q489.8281,449.5938 490.2813,449.7031 Q490.75,449.7969 491.1406,450.0156 L491.1406,451.9375 Q490.7031,451.5313 490.2813,451.3438 Q489.8594,451.1406 489.4219,451.1406 Q488.4688,451.1406 487.9844,451.9063 Q487.5,452.6563 487.5,454.1406 Q487.5,455.6094 487.9844,456.3594 Q488.4688,457.1094 489.4219,457.1094 Q489.8594,457.1094 490.2813,456.9219 Q490.7031,456.7344 491.1406,456.3281 L491.1406,458.25 Z " fill="#000000"/><text fill="#000000" font-family="Arial" font-size="12" lengthAdjust="spacing" textLength="55.6758" x="508.3125" y="458.1543">IOCOrder</text><line style="stroke:#1565C0;stroke-width:0.5;" x1="443" x2="599.3008" y1="469" y2="469"/><ellipse cx="453" cy="481.4844" fill="none" rx="3" ry="3" style="stroke:#038048;stroke-width:1.0;"/><text fill="#000000" font-family="Arial" font-size="12" lengthAdjust="spacing" textLength="90.6973" x="461" y="484.1387">limitPrice: float</text><ellipse cx="453" cy="495.4531" fill="none" rx="3" ry="3" style="stroke:#038048;stroke-width:1.0;"/><text fill="#000000" font-family="Arial" font-size="12" lengthAdjust="spacing" textLength="133.3008" x="461" y="498.1074">minimumFillSize: float</text><line style="stroke:#1565C0;stroke-width:0.5;" x1="443" x2="599.3008" y1="504.9375" y2="504.9375"/><ellipse cx="453" cy="517.4219" fill="#84BE84" rx="3" ry="3" style="stroke:#038048;stroke-width:1.0;"/><text fill="#000000" font-family="Arial" font-size="12" lengthAdjust="spacing" textLength="118.7813" x="461" y="520.0762">calculatePartialFill()</text><ellipse cx="453" cy="531.3906" fill="#84BE84" rx="3" ry="3" style="stroke:#038048;stroke-width:1.0;"/><text fill="#000000" font-family="Arial" font-size="12" lengthAdjust="spacing" textLength="111.1699" x="461" y="534.0449">handleExpiration()</text></g><!--class FOKOrder--><g id="elem_FOKOrder"><rect codeLine="42" fill="#FFFFFF" height="87.9063" id="FOKOrder" rx="2.5" ry="2.5" style="stroke:#1565C0;stroke-width:0.5;" width="156.3262" x="635" y="446"/><ellipse cx="679.8984" cy="461" fill="#ADD1B2" rx="10" ry="10" style="stroke:#181818;stroke-width:1.0;"/><path d="M681.7266,465.25 Q681.3203,465.4531 680.8672,465.5625 Q680.4141,465.6719 679.9297,465.6719 Q678.1484,465.6719 677.2109,464.5156 Q676.2891,463.3438 676.2891,461.1406 Q676.2891,458.9219 677.2109,457.7656 Q678.1484,456.5938 679.9297,456.5938 Q680.4141,456.5938 680.8672,456.7031 Q681.3359,456.7969 681.7266,457.0156 L681.7266,458.9375 Q681.2891,458.5313 680.8672,458.3438 Q680.4453,458.1406 680.0078,458.1406 Q679.0547,458.1406 678.5703,458.9063 Q678.0859,459.6563 678.0859,461.1406 Q678.0859,462.6094 678.5703,463.3594 Q679.0547,464.1094 680.0078,464.1094 Q680.4453,464.1094 680.8672,463.9219 Q681.2891,463.7344 681.7266,463.3281 L681.7266,465.25 Z " fill="#000000"/><text fill="#000000" font-family="Arial" font-size="12" lengthAdjust="spacing" textLength="58.5293" x="698.8984" y="465.1543">FOKOrder</text><line style="stroke:#1565C0;stroke-width:0.5;" x1="636" x2="790.3262" y1="476" y2="476"/><ellipse cx="646" cy="488.4844" fill="none" rx="3" ry="3" style="stroke:#038048;stroke-width:1.0;"/><text fill="#000000" font-family="Arial" font-size="12" lengthAdjust="spacing" textLength="90.6973" x="654" y="491.1387">limitPrice: float</text><line style="stroke:#1565C0;stroke-width:0.5;" x1="636" x2="790.3262" y1="497.9688" y2="497.9688"/><ellipse cx="646" cy="510.4531" fill="#84BE84" rx="3" ry="3" style="stroke:#038048;stroke-width:1.0;"/><text fill="#000000" font-family="Arial" font-size="12" lengthAdjust="spacing" textLength="131.3262" x="654" y="513.1074">checkFullFillPossible()</text><ellipse cx="646" cy="524.4219" fill="#84BE84" rx="3" ry="3" style="stroke:#038048;stroke-width:1.0;"/><text fill="#000000" font-family="Arial" font-size="12" lengthAdjust="spacing" textLength="106.2832" x="654" y="527.0762">handleRejection()</text></g><!--class OrderManager--><g id="elem_OrderManager"><rect codeLine="48" fill="#FFFFFF" height="143.7813" id="OrderManager" rx="2.5" ry="2.5" style="stroke:#1565C0;stroke-width:0.5;" width="159.1094" x="599.5" y="38"/><ellipse cx="632.4888" cy="53" fill="#ADD1B2" rx="10" ry="10" style="stroke:#181818;stroke-width:1.0;"/><path d="M634.3169,57.25 Q633.9106,57.4531 633.4575,57.5625 Q633.0044,57.6719 632.52,57.6719 Q630.7388,57.6719 629.8013,56.5156 Q628.8794,55.3438 628.8794,53.1406 Q628.8794,50.9219 629.8013,49.7656 Q630.7388,48.5938 632.52,48.5938 Q633.0044,48.5938 633.4575,48.7031 Q633.9263,48.7969 634.3169,49.0156 L634.3169,50.9375 Q633.8794,50.5313 633.4575,50.3438 Q633.0356,50.1406 632.5981,50.1406 Q631.645,50.1406 631.1606,50.9063 Q630.6763,51.6563 630.6763,53.1406 Q630.6763,54.6094 631.1606,55.3594 Q631.645,56.1094 632.5981,56.1094 Q633.0356,56.1094 633.4575,55.9219 Q633.8794,55.7344 634.3169,55.3281 L634.3169,57.25 Z " fill="#000000"/><text fill="#000000" font-family="Arial" font-size="12" lengthAdjust="spacing" textLength="86.9121" x="649.7085" y="57.1543">OrderManager</text><line style="stroke:#1565C0;stroke-width:0.5;" x1="600.5" x2="757.6094" y1="68" y2="68"/><rect fill="none" height="6" style="stroke:#C82930;stroke-width:1.0;" width="6" x="607.5" y="77.4844"/><text fill="#000000" font-family="Arial" font-size="12" lengthAdjust="spacing" textLength="134.1094" x="618.5" y="83.1387">orderBook: OrderBook</text><rect fill="none" height="6" style="stroke:#C82930;stroke-width:1.0;" width="6" x="607.5" y="91.4531"/><text fill="#000000" font-family="Arial" font-size="12" lengthAdjust="spacing" textLength="105.873" x="618.5" y="97.1074">activeOrders: List</text><rect fill="none" height="6" style="stroke:#C82930;stroke-width:1.0;" width="6" x="607.5" y="105.4219"/><text fill="#000000" font-family="Arial" font-size="12" lengthAdjust="spacing" textLength="124.1895" x="618.5" y="111.0762">historicalOrders: List</text><line style="stroke:#1565C0;stroke-width:0.5;" x1="600.5" x2="757.6094" y1="117.9063" y2="117.9063"/><ellipse cx="610.5" cy="130.3906" fill="#84BE84" rx="3" ry="3" style="stroke:#038048;stroke-width:1.0;"/><text fill="#000000" font-family="Arial" font-size="12" lengthAdjust="spacing" textLength="84.8789" x="618.5" y="133.0449">submitOrder()</text><ellipse cx="610.5" cy="144.3594" fill="#84BE84" rx="3" ry="3" style="stroke:#038048;stroke-width:1.0;"/><text fill="#000000" font-family="Arial" font-size="12" lengthAdjust="spacing" textLength="82.5469" x="618.5" y="147.0137">cancelOrder()</text><ellipse cx="610.5" cy="158.3281" fill="#84BE84" rx="3" ry="3" style="stroke:#038048;stroke-width:1.0;"/><text fill="#000000" font-family="Arial" font-size="12" lengthAdjust="spacing" textLength="84.9844" x="618.5" y="160.9824">modifyOrder()</text><ellipse cx="610.5" cy="172.2969" fill="#84BE84" rx="3" ry="3" style="stroke:#038048;stroke-width:1.0;"/><text fill="#000000" font-family="Arial" font-size="12" lengthAdjust="spacing" textLength="101.6191" x="618.5" y="174.9512">getOrderStatus()</text></g><!--class OrderValidator--><g id="elem_OrderValidator"><rect codeLine="58" fill="#FFFFFF" height="101.875" id="OrderValidator" rx="2.5" ry="2.5" style="stroke:#1565C0;stroke-width:0.5;" width="130.4043" x="507" y="256"/><ellipse cx="526.3596" cy="271" fill="#ADD1B2" rx="10" ry="10" style="stroke:#181818;stroke-width:1.0;"/><path d="M528.1877,275.25 Q527.7814,275.4531 527.3283,275.5625 Q526.8752,275.6719 526.3908,275.6719 Q524.6096,275.6719 523.6721,274.5156 Q522.7502,273.3438 522.7502,271.1406 Q522.7502,268.9219 523.6721,267.7656 Q524.6096,266.5938 526.3908,266.5938 Q526.8752,266.5938 527.3283,266.7031 Q527.7971,266.7969 528.1877,267.0156 L528.1877,268.9375 Q527.7502,268.5313 527.3283,268.3438 Q526.9064,268.1406 526.4689,268.1406 Q525.5158,268.1406 525.0314,268.9063 Q524.5471,269.6563 524.5471,271.1406 Q524.5471,272.6094 525.0314,273.3594 Q525.5158,274.1094 526.4689,274.1094 Q526.9064,274.1094 527.3283,273.9219 Q527.7502,273.7344 528.1877,273.3281 L528.1877,275.25 Z " fill="#000000"/><text fill="#000000" font-family="Arial" font-size="12" lengthAdjust="spacing" textLength="88.4941" x="540.5506" y="275.1543">OrderValidator</text><line style="stroke:#1565C0;stroke-width:0.5;" x1="508" x2="636.4043" y1="286" y2="286"/><line style="stroke:#1565C0;stroke-width:0.5;" x1="508" x2="636.4043" y1="294" y2="294"/><ellipse cx="518" cy="306.4844" fill="#84BE84" rx="3" ry="3" style="stroke:#038048;stroke-width:1.0;"/><text fill="#000000" font-family="Arial" font-size="12" lengthAdjust="spacing" textLength="82.1777" x="526" y="309.1387">validateSize()</text><ellipse cx="518" cy="320.4531" fill="#84BE84" rx="3" ry="3" style="stroke:#038048;stroke-width:1.0;"/><text fill="#000000" font-family="Arial" font-size="12" lengthAdjust="spacing" textLength="87.0293" x="526" y="323.1074">validatePrice()</text><ellipse cx="518" cy="334.4219" fill="#84BE84" rx="3" ry="3" style="stroke:#038048;stroke-width:1.0;"/><text fill="#000000" font-family="Arial" font-size="12" lengthAdjust="spacing" textLength="105.4043" x="526" y="337.0762">validateBalance()</text><ellipse cx="518" cy="348.3906" fill="#84BE84" rx="3" ry="3" style="stroke:#038048;stroke-width:1.0;"/><text fill="#000000" font-family="Arial" font-size="12" lengthAdjust="spacing" textLength="105.3691" x="526" y="351.0449">checkRiskLimits()</text></g><!--class OrderExecutor--><g id="elem_OrderExecutor"><rect codeLine="65" fill="#FFFFFF" height="115.8438" id="OrderExecutor" rx="2.5" ry="2.5" style="stroke:#1565C0;stroke-width:0.5;" width="226.791" x="672.5" y="249"/><ellipse cx="738.1143" cy="264" fill="#ADD1B2" rx="10" ry="10" style="stroke:#181818;stroke-width:1.0;"/><path d="M739.9424,268.25 Q739.5361,268.4531 739.083,268.5625 Q738.6299,268.6719 738.1455,268.6719 Q736.3643,268.6719 735.4268,267.5156 Q734.5049,266.3438 734.5049,264.1406 Q734.5049,261.9219 735.4268,260.7656 Q736.3643,259.5938 738.1455,259.5938 Q738.6299,259.5938 739.083,259.7031 Q739.5518,259.7969 739.9424,260.0156 L739.9424,261.9375 Q739.5049,261.5313 739.083,261.3438 Q738.6611,261.1406 738.2236,261.1406 Q737.2705,261.1406 736.7861,261.9063 Q736.3018,262.6563 736.3018,264.1406 Q736.3018,265.6094 736.7861,266.3594 Q737.2705,267.1094 738.2236,267.1094 Q738.6611,267.1094 739.083,266.9219 Q739.5049,266.7344 739.9424,266.3281 L739.9424,268.25 Z " fill="#000000"/><text fill="#000000" font-family="Arial" font-size="12" lengthAdjust="spacing" textLength="87.5625" x="757.1143" y="268.1543">OrderExecutor</text><line style="stroke:#1565C0;stroke-width:0.5;" x1="673.5" x2="898.291" y1="279" y2="279"/><rect fill="none" height="6" style="stroke:#C82930;stroke-width:1.0;" width="6" x="680.5" y="288.4844"/><text fill="#000000" font-family="Arial" font-size="12" lengthAdjust="spacing" textLength="201.791" x="691.5" y="294.1387">matchingEngine: MatchingEngine</text><rect fill="none" height="6" style="stroke:#C82930;stroke-width:1.0;" width="6" x="680.5" y="302.4531"/><text fill="#000000" font-family="Arial" font-size="12" lengthAdjust="spacing" textLength="145.7578" x="691.5" y="308.1074">executionQueue: Queue</text><line style="stroke:#1565C0;stroke-width:0.5;" x1="673.5" x2="898.291" y1="314.9375" y2="314.9375"/><ellipse cx="683.5" cy="327.4219" fill="#84BE84" rx="3" ry="3" style="stroke:#038048;stroke-width:1.0;"/><text fill="#000000" font-family="Arial" font-size="12" lengthAdjust="spacing" textLength="91.834" x="691.5" y="330.0762">executeOrder()</text><ellipse cx="683.5" cy="341.3906" fill="#84BE84" rx="3" ry="3" style="stroke:#038048;stroke-width:1.0;"/><text fill="#000000" font-family="Arial" font-size="12" lengthAdjust="spacing" textLength="111.668" x="691.5" y="344.0449">handlePartialFills()</text><ellipse cx="683.5" cy="355.3594" fill="#84BE84" rx="3" ry="3" style="stroke:#038048;stroke-width:1.0;"/><text fill="#000000" font-family="Arial" font-size="12" lengthAdjust="spacing" textLength="118.0137" x="691.5" y="358.0137">processRejections()</text></g><!--class OrderBook--><g id="elem_OrderBook"><rect codeLine="73" fill="#FFFFFF" height="115.8438" id="OrderBook" rx="2.5" ry="2.5" style="stroke:#1565C0;stroke-width:0.5;" width="131.1484" x="934.5" y="249"/><ellipse cx="965.1368" cy="264" fill="#ADD1B2" rx="10" ry="10" style="stroke:#181818;stroke-width:1.0;"/><path d="M966.9649,268.25 Q966.5587,268.4531 966.1056,268.5625 Q965.6524,268.6719 965.1681,268.6719 Q963.3868,268.6719 962.4493,267.5156 Q961.5274,266.3438 961.5274,264.1406 Q961.5274,261.9219 962.4493,260.7656 Q963.3868,259.5938 965.1681,259.5938 Q965.6524,259.5938 966.1056,259.7031 Q966.5743,259.7969 966.9649,260.0156 L966.9649,261.9375 Q966.5274,261.5313 966.1056,261.3438 Q965.6837,261.1406 965.2462,261.1406 Q964.2931,261.1406 963.8087,261.9063 Q963.3243,262.6563 963.3243,264.1406 Q963.3243,265.6094 963.8087,266.3594 Q964.2931,267.1094 965.2462,267.1094 Q965.6837,267.1094 966.1056,266.9219 Q966.5274,266.7344 966.9649,266.3281 L966.9649,268.25 Z " fill="#000000"/><text fill="#000000" font-family="Arial" font-size="12" lengthAdjust="spacing" textLength="64.1777" x="981.8339" y="268.1543">OrderBook</text><line style="stroke:#1565C0;stroke-width:0.5;" x1="935.5" x2="1064.6484" y1="279" y2="279"/><rect fill="none" height="6" style="stroke:#C82930;stroke-width:1.0;" width="6" x="942.5" y="288.4844"/><text fill="#000000" font-family="Arial" font-size="12" lengthAdjust="spacing" textLength="103.4121" x="953.5" y="294.1387">bids: PriceLevel[]</text><rect fill="none" height="6" style="stroke:#C82930;stroke-width:1.0;" width="6" x="942.5" y="302.4531"/><text fill="#000000" font-family="Arial" font-size="12" lengthAdjust="spacing" textLength="105.3984" x="953.5" y="308.1074">asks: PriceLevel[]</text><line style="stroke:#1565C0;stroke-width:0.5;" x1="935.5" x2="1064.6484" y1="314.9375" y2="314.9375"/><ellipse cx="945.5" cy="327.4219" fill="#84BE84" rx="3" ry="3" style="stroke:#038048;stroke-width:1.0;"/><text fill="#000000" font-family="Arial" font-size="12" lengthAdjust="spacing" textLength="88.1953" x="953.5" y="330.0762">updateDepth()</text><ellipse cx="945.5" cy="341.3906" fill="#84BE84" rx="3" ry="3" style="stroke:#038048;stroke-width:1.0;"/><text fill="#000000" font-family="Arial" font-size="12" lengthAdjust="spacing" textLength="96.2344" x="953.5" y="344.0449">getBestBidAsk()</text><ellipse cx="945.5" cy="355.3594" fill="#84BE84" rx="3" ry="3" style="stroke:#038048;stroke-width:1.0;"/><text fill="#000000" font-family="Arial" font-size="12" lengthAdjust="spacing" textLength="106.1484" x="953.5" y="358.0137">calculateSpread()</text></g><!--class MatchingEngine--><g id="elem_MatchingEngine"><rect codeLine="81" fill="#FFFFFF" height="115.8438" id="MatchingEngine" rx="2.5" ry="2.5" style="stroke:#1565C0;stroke-width:0.5;" width="240.1973" x="826" y="432"/><ellipse cx="893.9492" cy="447" fill="#ADD1B2" rx="10" ry="10" style="stroke:#181818;stroke-width:1.0;"/><path d="M895.7773,451.25 Q895.3711,451.4531 894.918,451.5625 Q894.4648,451.6719 893.9805,451.6719 Q892.1992,451.6719 891.2617,450.5156 Q890.3398,449.3438 890.3398,447.1406 Q890.3398,444.9219 891.2617,443.7656 Q892.1992,442.5938 893.9805,442.5938 Q894.4648,442.5938 894.918,442.7031 Q895.3867,442.7969 895.7773,443.0156 L895.7773,444.9375 Q895.3398,444.5313 894.918,444.3438 Q894.4961,444.1406 894.0586,444.1406 Q893.1055,444.1406 892.6211,444.9063 Q892.1367,445.6563 892.1367,447.1406 Q892.1367,448.6094 892.6211,449.3594 Q893.1055,450.1094 894.0586,450.1094 Q894.4961,450.1094 894.918,449.9219 Q895.3398,449.7344 895.7773,449.3281 L895.7773,451.25 Z " fill="#000000"/><text fill="#000000" font-family="Arial" font-size="12" lengthAdjust="spacing" textLength="96.2988" x="912.9492" y="451.1543">MatchingEngine</text><line style="stroke:#1565C0;stroke-width:0.5;" x1="827" x2="1065.1973" y1="462" y2="462"/><rect fill="none" height="6" style="stroke:#C82930;stroke-width:1.0;" width="6" x="834" y="471.4844"/><text fill="#000000" font-family="Arial" font-size="12" lengthAdjust="spacing" textLength="134.1094" x="845" y="477.1387">orderBook: OrderBook</text><rect fill="none" height="6" style="stroke:#C82930;stroke-width:1.0;" width="6" x="834" y="485.4531"/><text fill="#000000" font-family="Arial" font-size="12" lengthAdjust="spacing" textLength="215.1973" x="845" y="491.1074">latencySimulator: LatencySimulator</text><line style="stroke:#1565C0;stroke-width:0.5;" x1="827" x2="1065.1973" y1="497.9375" y2="497.9375"/><ellipse cx="837" cy="510.4219" fill="#84BE84" rx="3" ry="3" style="stroke:#038048;stroke-width:1.0;"/><text fill="#000000" font-family="Arial" font-size="12" lengthAdjust="spacing" textLength="81.627" x="845" y="513.0762">matchOrder()</text><ellipse cx="837" cy="524.3906" fill="#84BE84" rx="3" ry="3" style="stroke:#038048;stroke-width:1.0;"/><text fill="#000000" font-family="Arial" font-size="12" lengthAdjust="spacing" textLength="95.1621" x="845" y="527.0449">processQueue()</text><ellipse cx="837" cy="538.3594" fill="#84BE84" rx="3" ry="3" style="stroke:#038048;stroke-width:1.0;"/><text fill="#000000" font-family="Arial" font-size="12" lengthAdjust="spacing" textLength="124.5879" x="845" y="541.0137">handleCancellation()</text></g><!--class LatencySimulator--><g id="elem_LatencySimulator"><rect codeLine="89" fill="#FFFFFF" height="101.875" id="LatencySimulator" rx="2.5" ry="2.5" style="stroke:#1565C0;stroke-width:0.5;" width="209.418" x="841.5" y="608"/><ellipse cx="889.5361" cy="623" fill="#ADD1B2" rx="10" ry="10" style="stroke:#181818;stroke-width:1.0;"/><path d="M891.3643,627.25 Q890.958,627.4531 890.5049,627.5625 Q890.0518,627.6719 889.5674,627.6719 Q887.7861,627.6719 886.8486,626.5156 Q885.9268,625.3438 885.9268,623.1406 Q885.9268,620.9219 886.8486,619.7656 Q887.7861,618.5938 889.5674,618.5938 Q890.0518,618.5938 890.5049,618.7031 Q890.9736,618.7969 891.3643,619.0156 L891.3643,620.9375 Q890.9268,620.5313 890.5049,620.3438 Q890.083,620.1406 889.6455,620.1406 Q888.6924,620.1406 888.208,620.9063 Q887.7236,621.6563 887.7236,623.1406 Q887.7236,624.6094 888.208,625.3594 Q888.6924,626.1094 889.6455,626.1094 Q890.083,626.1094 890.5049,625.9219 Q890.9268,625.7344 891.3643,625.3281 L891.3643,627.25 Z " fill="#000000"/><text fill="#000000" font-family="Arial" font-size="12" lengthAdjust="spacing" textLength="105.3457" x="908.5361" y="627.1543">LatencySimulator</text><line style="stroke:#1565C0;stroke-width:0.5;" x1="842.5" x2="1049.918" y1="638" y2="638"/><rect fill="none" height="6" style="stroke:#C82930;stroke-width:1.0;" width="6" x="849.5" y="647.4844"/><text fill="#000000" font-family="Arial" font-size="12" lengthAdjust="spacing" textLength="116.2793" x="860.5" y="653.1387">meanLatency: float</text><rect fill="none" height="6" style="stroke:#C82930;stroke-width:1.0;" width="6" x="849.5" y="661.4531"/><text fill="#000000" font-family="Arial" font-size="12" lengthAdjust="spacing" textLength="63.2109" x="860.5" y="667.1074">jitter: float</text><line style="stroke:#1565C0;stroke-width:0.5;" x1="842.5" x2="1049.918" y1="673.9375" y2="673.9375"/><ellipse cx="852.5" cy="686.4219" fill="#84BE84" rx="3" ry="3" style="stroke:#038048;stroke-width:1.0;"/><text fill="#000000" font-family="Arial" font-size="12" lengthAdjust="spacing" textLength="145.5352" x="860.5" y="689.0762">simulateNetworkDelay()</text><ellipse cx="852.5" cy="700.3906" fill="#84BE84" rx="3" ry="3" style="stroke:#038048;stroke-width:1.0;"/><text fill="#000000" font-family="Arial" font-size="12" lengthAdjust="spacing" textLength="184.418" x="860.5" y="703.0449">simulateExchangeProcessing()</text></g><!--reverse link OrderType to MarketOrder--><g id="link_OrderType_MarketOrder"><path codeLine="98" d="M304.5202,365.8962 C264.1502,391.4462 229.83,413.16 189.05,438.97 " fill="none" id="OrderType-backto-MarketOrder" style="stroke:#666666;stroke-width:1.0;"/><polygon fill="none" points="319.73,356.27,301.3115,360.8263,307.729,370.9661,319.73,356.27" style="stroke:#666666;stroke-width:1.0;"/></g><!--reverse link OrderType to LimitOrder--><g id="link_OrderType_LimitOrder"><path codeLine="99" d="M362.1254,388.6638 C352.8954,410.6238 349.7,418.28 341.01,438.97 " fill="none" id="OrderType-backto-LimitOrder" style="stroke:#666666;stroke-width:1.0;"/><polygon fill="none" points="369.1,372.07,356.5942,386.339,367.6567,390.9887,369.1,372.07" style="stroke:#666666;stroke-width:1.0;"/></g><!--reverse link OrderType to IOCOrder--><g id="link_OrderType_IOCOrder"><path codeLine="100" d="M450.4807,386.8799 C465.6507,408.8399 472.16,418.28 486.45,438.97 " fill="none" id="OrderType-backto-IOCOrder" style="stroke:#666666;stroke-width:1.0;"/><polygon fill="none" points="440.25,372.07,445.5441,390.2901,455.4173,383.4697,440.25,372.07" style="stroke:#666666;stroke-width:1.0;"/></g><!--reverse link OrderType to FOKOrder--><g id="link_OrderType_FOKOrder"><path codeLine="101" d="M487.314,370.79 C493.314,374.54 484.08,368.63 490,372 C544.58,403.11 562.55,402.47 618,432 C626.15,436.34 634.58,441.06 642.91,445.86 " fill="none" id="OrderType-backto-FOKOrder" style="stroke:#666666;stroke-width:1.0;"/><polygon fill="none" points="472.05,361.25,484.134,375.878,490.494,365.702,472.05,361.25" style="stroke:#666666;stroke-width:1.0;"/></g><!--reverse link OrderManager to OrderType--><g id="link_OrderManager_OrderType"><path codeLine="104" d="M589.5379,172.6477 C549.6479,200.1277 511.46,226.44 472.07,253.59 " fill="none" id="OrderManager-backto-OrderType" style="stroke:#666666;stroke-width:1.0;"/><polygon fill="#666666" points="599.42,165.84,592.2097,165.9498,589.5379,172.6477,596.7482,172.5379,599.42,165.84" style="stroke:#666666;stroke-width:1.0;"/><text fill="#000000" font-family="Arial" font-size="12" lengthAdjust="spacing" textLength="7.6348" x="583.8795" y="169.1281">1</text><text fill="#000000" font-family="Arial" font-size="12" lengthAdjust="spacing" textLength="33.75" x="477.7703" y="245.1079">many</text></g><!--reverse link OrderManager to OrderValidator--><g id="link_OrderManager_OrderValidator"><path codeLine="105" d="M634.1448,192.7489 C620.7648,217.1189 611.87,233.34 599.6,255.7 " fill="none" id="OrderManager-backto-OrderValidator" style="stroke:#666666;stroke-width:1.0;"/><polygon fill="#666666" points="639.92,182.23,633.5261,185.5644,634.1448,192.7489,640.5387,189.4145,639.92,182.23" style="stroke:#666666;stroke-width:1.0;"/><text fill="#000000" font-family="Arial" font-size="12" lengthAdjust="spacing" textLength="7.6348" x="628.8866" y="200.9292">1</text><text fill="#000000" font-family="Arial" font-size="12" lengthAdjust="spacing" textLength="7.6348" x="596.308" y="245.0718">1</text></g><!--reverse link OrderManager to OrderExecutor--><g id="link_OrderManager_OrderExecutor"><path codeLine="106" d="M723.8544,192.7493 C735.9144,214.7193 743.26,228.11 754.72,248.99 " fill="none" id="OrderManager-backto-OrderExecutor" style="stroke:#666666;stroke-width:1.0;"/><polygon fill="#666666" points="718.08,182.23,717.4607,189.4145,723.8544,192.7493,724.4736,185.5649,718.08,182.23" style="stroke:#666666;stroke-width:1.0;"/><text fill="#000000" font-family="Arial" font-size="12" lengthAdjust="spacing" textLength="7.6348" x="714.4963" y="200.9292">1</text><text fill="#000000" font-family="Arial" font-size="12" lengthAdjust="spacing" textLength="7.6348" x="742.8884" y="238.1361">1</text></g><!--reverse link OrderManager to OrderBook--><g id="link_OrderManager_OrderBook"><path codeLine="107" d="M769.4003,156.5184 C816.4803,181.0684 866.01,208.59 917,242 C922.63,245.69 928.37,249.65 934.06,253.72 " fill="none" id="OrderManager-backto-OrderBook" style="stroke:#666666;stroke-width:1.0;"/><polygon fill="#666666" points="758.76,150.97,762.2307,157.291,769.4003,156.5184,765.9296,150.1974,758.76,150.97" style="stroke:#666666;stroke-width:1.0;"/><text fill="#000000" font-family="Arial" font-size="12" lengthAdjust="spacing" textLength="7.6348" x="766.7208" y="152.4507">1</text><text fill="#000000" font-family="Arial" font-size="12" lengthAdjust="spacing" textLength="7.6348" x="919.0591" y="245.0116">1</text></g><!--reverse link OrderExecutor to MatchingEngine--><g id="link_OrderExecutor_MatchingEngine"><path codeLine="108" d="M844.5684,374.2601 C863.3384,395.4901 876.67,410.57 895.43,431.79 " fill="none" id="OrderExecutor-backto-MatchingEngine" style="stroke:#666666;stroke-width:1.0;"/><polygon fill="#666666" points="836.62,365.27,837.5975,372.4145,844.5684,374.2601,843.5909,367.1156,836.62,365.27" style="stroke:#666666;stroke-width:1.0;"/><text fill="#000000" font-family="Arial" font-size="12" lengthAdjust="spacing" textLength="7.6348" x="835.117" y="383.9627">1</text><text fill="#000000" font-family="Arial" font-size="12" lengthAdjust="spacing" textLength="7.6348" x="881.1937" y="421.3089">1</text></g><!--reverse link MatchingEngine to LatencySimulator--><g id="link_MatchingEngine_LatencySimulator"><path codeLine="109" d="M946,560 C946,579.47 946,589.08 946,607.95 " fill="none" id="MatchingEngine-backto-LatencySimulator" style="stroke:#666666;stroke-width:1.0;"/><polygon fill="#666666" points="946,548,942,554,946,560,950,554,946,548" style="stroke:#666666;stroke-width:1.0;"/><text fill="#000000" font-family="Arial" font-size="12" lengthAdjust="spacing" textLength="7.6348" x="938.6001" y="567.0682">1</text><text fill="#000000" font-family="Arial" font-size="12" lengthAdjust="spacing" textLength="7.6348" x="938.4595" y="597.0038">1</text></g><!--SRC=[bLNBRjim4BpxAmZtq4TWe2wG78nUOYS6ZERLECYbw86crX8ZYXH8AecRvj-xf2IBUXXfTB6rizmT3cSfatAPKqqpOX8QgISkOxAbmi38x94psD92sAMITit_09b-6mQlQ0RaL7Cg0lnKQ_MqK49fyk74Fm7813M6l8m8FdEb8z1LvlJuv7ZnjOnJbiPQ5JAgiAL_F3PG_7Kqod45ZO6Chrr5SaablcKWBLdlZ8LiN7Ma6sCrPRQYuRFlTZbKi7kEF2ctwndP2aLjWnWUOH0he6HDrF8CZALPFYCHjU1UWoMMsiBq5xtKJ5x98nNSBVpqUH26Ps357iMzkf-I_YNLATXooy46a0tFi61qepaRs8NWUOxot2a1cig134O5AmHMM6Keh0s9rRNFFIkkfEynHEw2PxpFJRZeC2ydt4ekbMO38hC4MEhNtJkvkDqDiVfPG04tod37R8ZKwdhn7aePbpmhiYKNOj0GUw5kgBOu12unv9LG6GdKAkUQ7gAqlFxn7afUY6KXV2_Sgk4R0VsUj_00x51Btw-SaR3jn3j_hbGwArFStmP59_17y00Q-eARXjKamJU5VAaOn8zCiQdT479bpdwY5yvKnBUxNZYklBxsCtLmO_VbFAcMelMGkMCCQzRnqCOjO4w58zbYxOxWbflKM_mmaN96MZmcw5AMeBFFPSmbdkvbwxt9Wtg-lALdnFy4XYylXPv4vU47RZGXccl5m9YzDmvJToSVqjxm2C_KYtG1Zo1-_GvyOT93s56HEmtF8BT9voJdEBDp7fsQj6s8Qg3MkGOQ3LzweMB_RrzNLRBT6WTQE7UWHJkHm82kHq_SIZv_57tH5zxBuk2STxkrN05KLdXtu2SFt5hG0zyYNmUkm3ufdPw1eAqhiSRFdndoYz7WdZmAjoU7z3wIbKn0S-l84mqbVPFmt8oQZ-FtlvD9-B7fGirLtqNg-xORhoyzns2XihowiWagIMWSQuWzaI56zRqrdex95omrpgZSZPjF-O6iwRXpExoHLm_l6sdUO-rf3tCwuztnRfZPjSS_]--></g></svg>